BenchTwelve-Regular.ufo
<glyph name="quotesingle" format="1">
  <advance width="379"/>
  <unicode hex="0027"/>
  <outline>
    <contour>
      <point x="182" y="832" type="curve" smooth="yes"/>
      <point x="198" y="832" type="line" smooth="yes"/>
      <point x="213" y="832"/>
      <point x="212" y="852"/>
      <point x="214" y="889" type="curve" smooth="yes"/>
      <point x="235" y="1370" type="line" smooth="yes"/>
      <point x="236" y="1403"/>
      <point x="227" y="1438"/>
      <point x="212" y="1438" type="curve" smooth="yes"/>
      <point x="166" y="1438" type="line" smooth="yes"/>
      <point x="152" y="1438"/>
      <point x="140" y="1404"/>
      <point x="142" y="1371" type="curve" smooth="yes"/>
      <point x="166" y="889" type="line" smooth="yes"/>
      <point x="168" y="852"/>
      <point x="168" y="832"/>
    </contour>
  </outline>
</glyph>
<glyph name="two" format="1">
  <advance width="773"/>
  <unicode hex="0032"/>
  <outline>
    <contour>
      <point x="619" y="0" type="line" smooth="yes"/>
      <point x="633" y="0"/>
      <point x="641" y="0"/>
      <point x="641" y="27" type="curve" smooth="yes"/>
      <point x="641" y="33" type="line" smooth="yes"/>
      <point x="641" y="60"/>
      <point x="633" y="60"/>
      <point x="619" y="60" type="curve" smooth="yes"/>
      <point x="194" y="60" type="line"/>
      <point x="194" y="105" type="line" smooth="yes"/>
      <point x="194" y="521"/>
      <point x="689" y="698"/>
      <point x="689" y="1103" type="curve" smooth="yes"/>
      <point x="689" y="1364"/>
      <point x="552" y="1451"/>
      <point x="386" y="1451" type="curve" smooth="yes"/>
      <point x="255" y="1451"/>
      <point x="185" y="1427"/>
      <point x="75" y="1391" type="curve" smooth="yes"/>
      <point x="71" y="1390"/>
      <point x="70" y="1385"/>
      <point x="70" y="1379" type="curve" smooth="yes"/>
      <point x="70" y="1360"/>
      <point x="83" y="1326"/>
      <point x="94" y="1326" type="curve" smooth="yes"/>
      <point x="95" y="1326"/>
      <point x="95" y="1326"/>
      <point x="96" y="1326" type="curve"/>
      <point x="206" y="1362"/>
      <point x="245" y="1388"/>
      <point x="387" y="1388" type="curve" smooth="yes"/>
      <point x="527" y="1388"/>
      <point x="609" y="1314"/>
      <point x="609" y="1100" type="curve" smooth="yes"/>
      <point x="609" y="703"/>
      <point x="116" y="594"/>
      <point x="116" y="94" type="curve" smooth="yes"/>
      <point x="116" y="32" type="line" smooth="yes"/>
      <point x="116" y="0"/>
      <point x="124" y="0"/>
      <point x="138" y="0" type="curve" smooth="yes"/>
    </contour>
  </outline>
</glyph>
<glyph name="four" format="1">
  <advance width="847"/>
  <unicode hex="0034"/>
  <outline>
    <contour>
      <point x="580" y="0" type="curve" smooth="yes"/>
      <point x="590" y="0" type="line" smooth="yes"/>
      <point x="613" y="0"/>
      <point x="624" y="4"/>
      <point x="624" y="47" type="curve" smooth="yes"/>
      <point x="624" y="284" type="line"/>
      <point x="799" y="284" type="line" smooth="yes"/>
      <point x="842" y="284"/>
      <point x="854" y="284"/>
      <point x="854" y="319" type="curve" smooth="yes"/>
      <point x="854" y="324" type="line" smooth="yes"/>
      <point x="854" y="359"/>
      <point x="842" y="359"/>
      <point x="799" y="359" type="curve" smooth="yes"/>
      <point x="624" y="359" type="line"/>
      <point x="624" y="1389" type="line" smooth="yes"/>
      <point x="624" y="1432"/>
      <point x="613" y="1438"/>
      <point x="590" y="1438" type="curve" smooth="yes"/>
      <point x="580" y="1438" type="line" smooth="yes"/>
      <point x="557" y="1438"/>
      <point x="546" y="1432"/>
      <point x="546" y="1389" type="curve" smooth="yes"/>
      <point x="546" y="359" type="line"/>
      <point x="223" y="359" type="line" smooth="yes"/>
      <point x="202" y="359"/>
      <point x="201" y="362"/>
      <point x="203" y="380" type="curve" smooth="yes"/>
      <point x="326" y="1371" type="line" smooth="yes"/>
      <point x="328" y="1387"/>
      <point x="336" y="1438"/>
      <point x="303" y="1438" type="curve" smooth="yes"/>
      <point x="284" y="1438" type="line" smooth="yes"/>
      <point x="258" y="1438"/>
      <point x="253" y="1414"/>
      <point x="247" y="1371" type="curve" smooth="yes"/>
      <point x="115" y="351" type="line" smooth="yes"/>
      <point x="109" y="305"/>
      <point x="139" y="284"/>
      <point x="182" y="284" type="curve" smooth="yes"/>
      <point x="546" y="284" type="line"/>
      <point x="546" y="47" type="line" smooth="yes"/>
      <point x="546" y="4"/>
      <point x="557" y="0"/>
    </contour>
  </outline>
</glyph>
<glyph name="six" format="1">
  <advance width="773"/>
  <unicode hex="0036"/>
  <outline>
    <contour>
      <point x="367" y="-12" type="curve" smooth="yes"/>
      <point x="542" y="-18"/>
      <point x="685" y="61"/>
      <point x="684" y="426" type="curve" smooth="yes"/>
      <point x="684" y="653"/>
      <point x="638" y="846"/>
      <point x="407" y="846" type="curve" smooth="yes"/>
      <point x="347" y="846"/>
      <point x="261" y="831"/>
      <point x="171" y="797" type="curve"/>
      <point x="171" y="840" type="line" smooth="yes"/>
      <point x="171" y="1232"/>
      <point x="238" y="1388"/>
      <point x="415" y="1388" type="curve" smooth="yes"/>
      <point x="513" y="1388"/>
      <point x="565" y="1341"/>
      <point x="603" y="1315" type="curve" smooth="yes"/>
      <point x="612.107244134" y="1308.79051536"/>
      <point x="621.214488268" y="1314.57675945"/>
      <point x="626.987539278" y="1325.05188349" type="curve" smooth="yes"/>
      <point x="631.073876274" y="1332.46648745"/>
      <point x="633.48970619" y="1342.23032761"/>
      <point x="633.052594488" y="1351.75211127" type="curve" smooth="yes"/>
      <point x="632.615482787" y="1361.27389492"/>
      <point x="629.325429469" y="1370.55362207"/>
      <point x="622" y="1377" type="curve" smooth="yes"/>
      <point x="582" y="1412"/>
      <point x="507" y="1451"/>
      <point x="419" y="1451" type="curve" smooth="yes"/>
      <point x="202" y="1451"/>
      <point x="90" y="1295"/>
      <point x="90" y="736" type="curve" smooth="yes"/>
      <point x="90" y="292"/>
      <point x="122" y="-4"/>
    </contour>
    <contour>
      <point x="378" y="51" type="curve" smooth="yes"/>
      <point x="216" y="56"/>
      <point x="168" y="248"/>
      <point x="168" y="705" type="curve" smooth="yes"/>
      <point x="168" y="732" type="line"/>
      <point x="264" y="766"/>
      <point x="348" y="781"/>
      <point x="405" y="781" type="curve" smooth="yes"/>
      <point x="577" y="781"/>
      <point x="610" y="603"/>
      <point x="610" y="431" type="curve" smooth="yes"/>
      <point x="610" y="127"/>
      <point x="528" y="46"/>
    </contour>
  </outline>
</glyph>
<glyph name="equal" format="1">
  <advance width="429"/>
  <unicode hex="003D"/>
  <outline>
    <contour>
      <point x="67" y="366" type="curve" smooth="yes"/>
      <point x="361" y="366" type="line" smooth="yes"/>
      <point x="376" y="366"/>
      <point x="381" y="366"/>
      <point x="381" y="409" type="curve" smooth="yes"/>
      <point x="381" y="413" type="line" smooth="yes"/>
      <point x="381" y="456"/>
      <point x="376" y="456"/>
      <point x="361" y="456" type="curve" smooth="yes"/>
      <point x="67" y="456" type="line" smooth="yes"/>
      <point x="52" y="456"/>
      <point x="48" y="456"/>
      <point x="48" y="413" type="curve" smooth="yes"/>
      <point x="48" y="409" type="line" smooth="yes"/>
      <point x="48" y="366"/>
      <point x="52" y="366"/>
    </contour>
    <contour>
      <point x="67" y="631" type="curve" smooth="yes"/>
      <point x="361" y="631" type="line" smooth="yes"/>
      <point x="376" y="631"/>
      <point x="381" y="631"/>
      <point x="381" y="674" type="curve" smooth="yes"/>
      <point x="381" y="678" type="line" smooth="yes"/>
      <point x="381" y="721"/>
      <point x="376" y="721"/>
      <point x="361" y="721" type="curve" smooth="yes"/>
      <point x="67" y="721" type="line" smooth="yes"/>
      <point x="52" y="721"/>
      <point x="48" y="721"/>
      <point x="48" y="678" type="curve" smooth="yes"/>
      <point x="48" y="674" type="line" smooth="yes"/>
      <point x="48" y="631"/>
      <point x="52" y="631"/>
    </contour>
  </outline>
</glyph>
<glyph name="question" format="1">
  <advance width="716"/>
  <unicode hex="003F"/>
  <outline>
    <contour>
      <point x="241" y="464" type="curve" smooth="yes"/>
      <point x="267" y="451"/>
      <point x="270" y="478"/>
      <point x="270" y="478" type="curve"/>
      <point x="309" y="589"/>
      <point x="316" y="656"/>
      <point x="400" y="700" type="curve"/>
      <point x="577" y="790"/>
      <point x="668" y="953"/>
      <point x="668" y="1098" type="curve" smooth="yes"/>
      <point x="668" y="1284"/>
      <point x="559" y="1445"/>
      <point x="336" y="1445" type="curve" smooth="yes"/>
      <point x="264" y="1445"/>
      <point x="184" y="1423"/>
      <point x="102" y="1382" type="curve"/>
      <point x="80" y="1373"/>
      <point x="70" y="1358"/>
      <point x="70" y="1343" type="curve" smooth="yes"/>
      <point x="70" y="1325"/>
      <point x="84" y="1309"/>
      <point x="105" y="1309" type="curve" smooth="yes"/>
      <point x="111" y="1309"/>
      <point x="118" y="1311"/>
      <point x="126" y="1314" type="curve"/>
      <point x="192" y="1354"/>
      <point x="266" y="1379"/>
      <point x="334" y="1379" type="curve" smooth="yes"/>
      <point x="497" y="1379"/>
      <point x="599" y="1245"/>
      <point x="599" y="1095" type="curve" smooth="yes"/>
      <point x="599" y="982"/>
      <point x="542" y="859"/>
      <point x="410" y="776" type="curve" smooth="yes"/>
      <point x="305" y="710"/>
      <point x="275" y="682"/>
      <point x="221" y="514" type="curve"/>
      <point x="221" y="514"/>
      <point x="206" y="486"/>
      <point x="224" y="474" type="curve" smooth="yes"/>
      <point x="231" y="469"/>
      <point x="237" y="466"/>
    </contour>
    <contour>
      <point x="219" y="0" type="curve" smooth="yes"/>
      <point x="251" y="0" type="line" smooth="yes"/>
      <point x="266" y="0"/>
      <point x="277" y="12"/>
      <point x="277" y="49" type="curve" smooth="yes"/>
      <point x="277" y="79" type="line" smooth="yes"/>
      <point x="277" y="116"/>
      <point x="266" y="128"/>
      <point x="251" y="128" type="curve" smooth="yes"/>
      <point x="219" y="128" type="line" smooth="yes"/>
      <point x="205" y="128"/>
      <point x="193" y="116"/>
      <point x="193" y="79" type="curve" smooth="yes"/>
      <point x="193" y="49" type="line" smooth="yes"/>
      <point x="193" y="12"/>
      <point x="205" y="0"/>
    </contour>
  </outline>
</glyph>
<glyph name="A" format="1">
  <advance width="739"/>
  <unicode hex="0041"/>
  <outline>
    <contour>
      <point x="74" y="0" type="curve" smooth="yes"/>
      <point x="101" y="0" type="line" smooth="yes"/>
      <point x="119" y="0"/>
      <point x="129" y="10"/>
      <point x="138" y="53" type="curve" smooth="yes"/>
      <point x="195" y="354" type="line"/>
      <point x="198" y="360" type="line"/>
      <point x="542" y="360" type="line"/>
      <point x="546" y="355" type="line"/>
      <point x="595" y="53" type="line" smooth="yes"/>
      <point x="602" y="9"/>
      <point x="622" y="0"/>
      <point x="638" y="0" type="curve" smooth="yes"/>
      <point x="667" y="0" type="line" smooth="yes"/>
      <point x="677" y="0"/>
      <point x="682" y="11"/>
      <point x="682" y="31" type="curve" smooth="yes"/>
      <point x="682" y="41"/>
      <point x="677" y="39"/>
      <point x="675" y="53" type="curve" smooth="yes"/>
      <point x="435" y="1380" type="line" smooth="yes"/>
      <point x="428" y="1421"/>
      <point x="416" y="1435"/>
      <point x="400" y="1438" type="curve"/>
      <point x="354" y="1438" type="line"/>
      <point x="338" y="1435"/>
      <point x="326" y="1421"/>
      <point x="318" y="1380" type="curve" smooth="yes"/>
      <point x="60" y="53" type="line" smooth="yes"/>
      <point x="57" y="39"/>
      <point x="59" y="42"/>
      <point x="59" y="32" type="curve" smooth="yes"/>
      <point x="59" y="11"/>
      <point x="65" y="0"/>
    </contour>
    <contour>
      <point x="227" y="420" type="line" smooth="yes"/>
      <point x="221" y="420"/>
      <point x="218" y="425"/>
      <point x="218" y="427" type="curve" smooth="yes"/>
      <point x="218" y="428"/>
      <point x="218" y="431"/>
      <point x="219" y="436" type="curve" smooth="yes"/>
      <point x="375" y="1331" type="line"/>
      <point x="375" y="1331"/>
      <point x="375" y="1333"/>
      <point x="377" y="1333" type="curve"/>
      <point x="377" y="1333"/>
      <point x="377" y="1332"/>
      <point x="378" y="1331" type="curve" smooth="yes"/>
      <point x="525" y="430" type="line"/>
      <point x="527" y="429"/>
      <point x="527" y="427"/>
      <point x="527" y="425" type="curve" smooth="yes"/>
      <point x="527" y="423"/>
      <point x="527" y="420"/>
      <point x="525" y="420" type="curve" smooth="yes"/>
    </contour>
    <contour>
      <point x="370" y="1438" type="move" name="top"/>
    </contour>
    <contour>
      <point x="665" y="10" type="move" name="ogonek"/>
    </contour>
  </outline>
</glyph>
<glyph name="I" format="1">
  <advance width="289"/>
  <unicode hex="0049"/>
  <outline>
    <contour>
      <point x="131" y="0" type="curve" smooth="yes"/>
      <point x="164" y="0" type="line" smooth="yes"/>
      <point x="179" y="0"/>
      <point x="187" y="4"/>
      <point x="187" y="47" type="curve" smooth="yes"/>
      <point x="187" y="1391" type="line" smooth="yes"/>
      <point x="187" y="1434"/>
      <point x="179" y="1438"/>
      <point x="164" y="1438" type="curve" smooth="yes"/>
      <point x="131" y="1438" type="line" smooth="yes"/>
      <point x="117" y="1438"/>
      <point x="109" y="1434"/>
      <point x="109" y="1391" type="curve" smooth="yes"/>
      <point x="109" y="47" type="line" smooth="yes"/>
      <point x="109" y="4"/>
      <point x="117" y="0"/>
    </contour>
    <contour>
      <point x="145" y="1438" type="move" name="top"/>
    </contour>
    <contour>
      <point x="260" y="10" type="move" name="ogonek"/>
    </contour>
  </outline>
</glyph>
<glyph name="J" format="1">
  <advance width="443"/>
  <unicode hex="004A"/>
  <outline>
    <contour>
      <point x="17" y="-141" type="curve" smooth="yes"/>
      <point x="230" y="-141"/>
      <point x="331" y="-137"/>
      <point x="331" y="371" type="curve" smooth="yes"/>
      <point x="331" y="1383" type="line" smooth="yes"/>
      <point x="331" y="1426"/>
      <point x="323" y="1438"/>
      <point x="308" y="1438" type="curve" smooth="yes"/>
      <point x="276" y="1438" type="line" smooth="yes"/>
      <point x="261" y="1438"/>
      <point x="253" y="1426"/>
      <point x="253" y="1383" type="curve" smooth="yes"/>
      <point x="253" y="371" type="line" smooth="yes"/>
      <point x="253" y="-66"/>
      <point x="198" y="-75"/>
      <point x="17" y="-75" type="curve" smooth="yes"/>
      <point x="12" y="-75"/>
      <point x="6" y="-75"/>
      <point x="6" y="-99" type="curve" smooth="yes"/>
      <point x="6" y="-118" type="line" smooth="yes"/>
      <point x="6" y="-141"/>
      <point x="11" y="-141"/>
    </contour>
    <contour>
      <point x="222" y="1438" type="move" name="top"/>
    </contour>
  </outline>
</glyph>
<glyph name="Q" format="1">
  <advance width="926"/>
  <unicode hex="0051"/>
  <outline>
    <contour>
      <point x="632" y="-340" type="curve" smooth="yes"/>
      <point x="641" y="-343"/>
      <point x="653" y="-339"/>
      <point x="672" y="-333" type="curve" smooth="yes"/>
      <point x="701" y="-324"/>
      <point x="692" y="-316"/>
      <point x="682" y="-282" type="curve" smooth="yes"/>
      <point x="602" y="4" type="line"/>
      <point x="762" y="53"/>
      <point x="836" y="216"/>
      <point x="836" y="724" type="curve" smooth="yes"/>
      <point x="836" y="1316"/>
      <point x="714" y="1451"/>
      <point x="462" y="1451" type="curve" smooth="yes"/>
      <point x="214" y="1451"/>
      <point x="90" y="1306"/>
      <point x="90" y="724" type="curve" smooth="yes"/>
      <point x="90" y="95"/>
      <point x="214" y="-13"/>
      <point x="462" y="-13" type="curve" smooth="yes"/>
      <point x="483" y="-13"/>
      <point x="516" y="-10"/>
      <point x="526" y="-7" type="curve"/>
      <point x="611" y="-305" type="line" smooth="yes"/>
      <point x="617" y="-327"/>
      <point x="623" y="-337"/>
    </contour>
    <contour>
      <point x="462" y="51" type="curve" smooth="yes"/>
      <point x="278" y="51"/>
      <point x="168" y="128"/>
      <point x="168" y="724" type="curve" smooth="yes"/>
      <point x="168" y="1252"/>
      <point x="273" y="1388"/>
      <point x="462" y="1388" type="curve" smooth="yes"/>
      <point x="653" y="1388"/>
      <point x="758" y="1273"/>
      <point x="758" y="724" type="curve" smooth="yes"/>
      <point x="758" y="114"/>
      <point x="649" y="51"/>
    </contour>
  </outline>
</glyph>
<glyph name="S" format="1">
  <advance width="727"/>
  <unicode hex="0053"/>
  <outline>
    <contour>
      <point x="362" y="-13" type="curve" smooth="yes"/>
      <point x="547" y="-13"/>
      <point x="663" y="152"/>
      <point x="663" y="367" type="curve" smooth="yes"/>
      <point x="663" y="583"/>
      <point x="567" y="667"/>
      <point x="464" y="737" type="curve" smooth="yes"/>
      <point x="325" y="831" type="line" smooth="yes"/>
      <point x="257" y="878"/>
      <point x="172" y="947"/>
      <point x="172" y="1109" type="curve" smooth="yes"/>
      <point x="172" y="1263"/>
      <point x="242" y="1384"/>
      <point x="371" y="1388" type="curve" smooth="yes"/>
      <point x="464" y="1391"/>
      <point x="540" y="1349"/>
      <point x="595" y="1279" type="curve" smooth="yes"/>
      <point x="609" y="1262"/>
      <point x="663" y="1297"/>
      <point x="637" y="1333" type="curve"/>
      <point x="575" y="1410"/>
      <point x="485" y="1455"/>
      <point x="368" y="1451" type="curve" smooth="yes"/>
      <point x="202" y="1445"/>
      <point x="96" y="1305"/>
      <point x="96" y="1102" type="curve" smooth="yes"/>
      <point x="96" y="893"/>
      <point x="207" y="809"/>
      <point x="287" y="756" type="curve"/>
      <point x="428" y="660" type="line" smooth="yes"/>
      <point x="519" y="598"/>
      <point x="587" y="536"/>
      <point x="587" y="360" type="curve" smooth="yes"/>
      <point x="587" y="174"/>
      <point x="498" y="51"/>
      <point x="358" y="51" type="curve" smooth="yes"/>
      <point x="250" y="51"/>
      <point x="179" y="91"/>
      <point x="104" y="211" type="curve"/>
      <point x="91" y="236"/>
      <point x="33" y="204"/>
      <point x="52" y="170" type="curve" smooth="yes"/>
      <point x="125" y="46"/>
      <point x="228" y="-13"/>
    </contour>
    <contour>
      <point x="364" y="1438" type="move" name="top"/>
    </contour>
    <contour>
      <point x="364" y="0" type="move" name="bottom"/>
    </contour>
  </outline>
</glyph>
<glyph name="Y" format="1">
  <advance width="606"/>
  <unicode hex="0059"/>
  <outline>
    <contour>
      <point x="288" y="0" type="curve" smooth="yes"/>
      <point x="321" y="0" type="line" smooth="yes"/>
      <point x="336" y="0"/>
      <point x="343" y="10"/>
      <point x="343" y="53" type="curve" smooth="yes"/>
      <point x="343" y="571" type="line"/>
      <point x="557" y="1381" type="line"/>
      <point x="563" y="1399"/>
      <point x="563" y="1407"/>
      <point x="563" y="1418" type="curve" smooth="yes"/>
      <point x="563" y="1431"/>
      <point x="557" y="1438"/>
      <point x="542" y="1438" type="curve" smooth="yes"/>
      <point x="523" y="1438" type="line" smooth="yes"/>
      <point x="507" y="1438"/>
      <point x="491" y="1425"/>
      <point x="485" y="1401" type="curve" smooth="yes"/>
      <point x="306" y="689" type="line"/>
      <point x="124" y="1401" type="line" smooth="yes"/>
      <point x="117" y="1430"/>
      <point x="98" y="1438"/>
      <point x="84" y="1438" type="curve" smooth="yes"/>
      <point x="65" y="1438" type="line" smooth="yes"/>
      <point x="51" y="1438"/>
      <point x="43" y="1432"/>
      <point x="43" y="1420" type="curve" smooth="yes"/>
      <point x="43" y="1409"/>
      <point x="44" y="1401"/>
      <point x="51" y="1381" type="curve"/>
      <point x="265" y="567" type="line"/>
      <point x="265" y="53" type="line" smooth="yes"/>
      <point x="265" y="10"/>
      <point x="273" y="0"/>
    </contour>
    <contour>
      <point x="303" y="1438" type="move" name="top"/>
    </contour>
  </outline>
</glyph>
<glyph name="backslash" format="1">
  <advance width="505"/>
  <unicode hex="005C"/>
  <outline>
    <contour>
      <point x="358" y="-205" type="curve" smooth="yes"/>
      <point x="414" y="-205" type="line" smooth="yes"/>
      <point x="419" y="-205"/>
      <point x="424" y="-187"/>
      <point x="421" y="-170" type="curve" smooth="yes"/>
      <point x="188" y="1612" type="line" smooth="yes"/>
      <point x="185" y="1633"/>
      <point x="179" y="1647"/>
      <point x="172" y="1647" type="curve" smooth="yes"/>
      <point x="115" y="1647" type="line" smooth="yes"/>
      <point x="109" y="1647"/>
      <point x="106" y="1629"/>
      <point x="108" y="1612" type="curve" smooth="yes"/>
      <point x="341" y="-170" type="line" smooth="yes"/>
      <point x="344" y="-191"/>
      <point x="352" y="-205"/>
    </contour>
  </outline>
</glyph>
<glyph name="b" format="1">
  <advance width="684"/>
  <unicode hex="0062"/>
  <outline>
    <contour>
      <point x="365" y="-12" type="curve" smooth="yes"/>
      <point x="476" y="-12"/>
      <point x="608" y="107"/>
      <point x="608" y="504" type="curve" smooth="yes"/>
      <point x="608" y="912"/>
      <point x="498" y="1019"/>
      <point x="376" y="1019" type="curve" smooth="yes"/>
      <point x="299" y="1019"/>
      <point x="218" y="955"/>
      <point x="176" y="823" type="curve"/>
      <point x="176" y="823"/>
      <point x="175" y="819"/>
      <point x="174" y="819" type="curve" smooth="yes"/>
      <point x="174" y="819"/>
      <point x="173" y="820"/>
      <point x="173" y="827" type="curve" smooth="yes"/>
      <point x="173" y="1371" type="line" smooth="yes"/>
      <point x="173" y="1414"/>
      <point x="165" y="1438"/>
      <point x="150" y="1438" type="curve" smooth="yes"/>
      <point x="118" y="1438" type="line" smooth="yes"/>
      <point x="104" y="1438"/>
      <point x="96" y="1414"/>
      <point x="96" y="1371" type="curve" smooth="yes"/>
      <point x="96" y="53" type="line" smooth="yes"/>
      <point x="96" y="10"/>
      <point x="100" y="0"/>
      <point x="114" y="0" type="curve" smooth="yes"/>
      <point x="118" y="0" type="line" smooth="yes"/>
      <point x="128" y="0"/>
      <point x="134" y="17"/>
      <point x="139" y="41" type="curve" smooth="yes"/>
      <point x="148" y="87"/>
      <point x="151" y="170"/>
      <point x="158" y="210" type="curve" smooth="yes"/>
      <point x="159" y="219"/>
      <point x="160" y="221"/>
      <point x="160" y="221" type="curve" smooth="yes"/>
      <point x="161" y="221"/>
      <point x="162" y="218"/>
      <point x="163" y="216" type="curve" smooth="yes"/>
      <point x="207" y="52"/>
      <point x="288" y="-12"/>
    </contour>
    <contour>
      <point x="353" y="50" type="curve" smooth="yes"/>
      <point x="254" y="50"/>
      <point x="173" y="247"/>
      <point x="173" y="504" type="curve" smooth="yes"/>
      <point x="173" y="784"/>
      <point x="271" y="957"/>
      <point x="364" y="957" type="curve" smooth="yes"/>
      <point x="455" y="957"/>
      <point x="531" y="849"/>
      <point x="531" y="504" type="curve" smooth="yes"/>
      <point x="531" y="164"/>
      <point x="449" y="50"/>
    </contour>
  </outline>
</glyph>
<glyph name="j" format="1">
  <advance width="316"/>
  <unicode hex="006A"/>
  <outline>
    <contour>
      <point x="39" y="-291" type="curve" smooth="yes"/>
      <point x="78" y="-291" type="line" smooth="yes"/>
      <point x="184" y="-291"/>
      <point x="217" y="-259"/>
      <point x="217" y="6" type="curve" smooth="yes"/>
      <point x="217" y="959" type="line" smooth="yes"/>
      <point x="217" y="1002"/>
      <point x="210" y="1006"/>
      <point x="194" y="1006" type="curve" smooth="yes"/>
      <point x="163" y="1006" type="line" smooth="yes"/>
      <point x="149" y="1006"/>
      <point x="140" y="1002"/>
      <point x="140" y="959" type="curve" smooth="yes"/>
      <point x="140" y="19" type="line" smooth="yes"/>
      <point x="140" y="-167"/>
      <point x="134" y="-212"/>
      <point x="77" y="-212" type="curve" smooth="yes"/>
      <point x="39" y="-212" type="line" smooth="yes"/>
      <point x="22" y="-212"/>
      <point x="19" y="-221"/>
      <point x="19" y="-234" type="curve" smooth="yes"/>
      <point x="19" y="-266" type="line" smooth="yes"/>
      <point x="19" y="-282"/>
      <point x="24" y="-291"/>
    </contour>
    <contour>
      <point x="153" y="1179" type="curve" smooth="yes"/>
      <point x="205" y="1179" type="line" smooth="yes"/>
      <point x="220" y="1179"/>
      <point x="227" y="1183"/>
      <point x="227" y="1226" type="curve" smooth="yes"/>
      <point x="227" y="1274" type="line" smooth="yes"/>
      <point x="227" y="1317"/>
      <point x="220" y="1321"/>
      <point x="205" y="1321" type="curve" smooth="yes"/>
      <point x="153" y="1321" type="line" smooth="yes"/>
      <point x="138" y="1321"/>
      <point x="130" y="1317"/>
      <point x="130" y="1274" type="curve" smooth="yes"/>
      <point x="130" y="1226" type="line" smooth="yes"/>
      <point x="130" y="1183"/>
      <point x="138" y="1179"/>
    </contour>
  </outline>
</glyph>
<glyph name="p" format="1">
  <advance width="686"/>
  <unicode hex="0070"/>
  <outline>
    <contour>
      <point x="117" y="-427" type="curve" smooth="yes"/>
      <point x="149" y="-427" type="line" smooth="yes"/>
      <point x="163" y="-427"/>
      <point x="172" y="-408"/>
      <point x="172" y="-365" type="curve" smooth="yes"/>
      <point x="172" y="176" type="line" smooth="yes"/>
      <point x="172" y="182"/>
      <point x="172" y="184"/>
      <point x="173" y="184" type="curve" smooth="yes"/>
      <point x="173" y="184"/>
      <point x="175" y="182"/>
      <point x="176" y="179" type="curve" smooth="yes"/>
      <point x="217" y="50"/>
      <point x="283" y="-12"/>
      <point x="357" y="-12" type="curve" smooth="yes"/>
      <point x="487" y="-12"/>
      <point x="607" y="128"/>
      <point x="607" y="507" type="curve" smooth="yes"/>
      <point x="607" y="867"/>
      <point x="489" y="1019"/>
      <point x="364" y="1019" type="curve" smooth="yes"/>
      <point x="289" y="1019"/>
      <point x="205" y="944"/>
      <point x="162" y="782" type="curve" smooth="yes"/>
      <point x="160" y="778"/>
      <point x="159" y="776"/>
      <point x="157" y="776" type="curve" smooth="yes"/>
      <point x="156" y="776"/>
      <point x="153" y="781"/>
      <point x="153" y="787" type="curve" smooth="yes"/>
      <point x="153" y="820"/>
      <point x="148" y="889"/>
      <point x="143" y="927" type="curve" smooth="yes"/>
      <point x="135" y="1000"/>
      <point x="127" y="1011"/>
      <point x="117" y="1011" type="curve" smooth="yes"/>
      <point x="112" y="1011" type="line" smooth="yes"/>
      <point x="97" y="1011"/>
      <point x="94" y="997"/>
      <point x="94" y="954" type="curve" smooth="yes"/>
      <point x="94" y="-365" type="line" smooth="yes"/>
      <point x="94" y="-408"/>
      <point x="102" y="-427"/>
    </contour>
    <contour>
      <point x="352" y="50" type="curve" smooth="yes"/>
      <point x="259" y="50"/>
      <point x="172" y="225"/>
      <point x="172" y="507" type="curve" smooth="yes"/>
      <point x="172" y="765"/>
      <point x="253" y="957"/>
      <point x="352" y="957" type="curve" smooth="yes"/>
      <point x="448" y="957"/>
      <point x="529" y="798"/>
      <point x="529" y="507" type="curve" smooth="yes"/>
      <point x="529" y="143"/>
      <point x="442" y="50"/>
    </contour>
  </outline>
</glyph>
<glyph name="q" format="1">
  <advance width="683"/>
  <unicode hex="0071"/>
  <outline>
    <contour>
      <point x="537" y="-427" type="curve" smooth="yes"/>
      <point x="569" y="-427" type="line" smooth="yes"/>
      <point x="584" y="-427"/>
      <point x="592" y="-408"/>
      <point x="592" y="-365" type="curve" smooth="yes"/>
      <point x="592" y="954" type="line" smooth="yes"/>
      <point x="592" y="997"/>
      <point x="589" y="1011"/>
      <point x="574" y="1011" type="curve" smooth="yes"/>
      <point x="569" y="1011" type="line" smooth="yes"/>
      <point x="559" y="1011"/>
      <point x="551" y="1000"/>
      <point x="543" y="927" type="curve" smooth="yes"/>
      <point x="538" y="889"/>
      <point x="533" y="811"/>
      <point x="533" y="778" type="curve" smooth="yes"/>
      <point x="533" y="772"/>
      <point x="530" y="767"/>
      <point x="529" y="767" type="curve" smooth="yes"/>
      <point x="527" y="767"/>
      <point x="526" y="769"/>
      <point x="524" y="773" type="curve" smooth="yes"/>
      <point x="482" y="935"/>
      <point x="425" y="1019"/>
      <point x="338" y="1019" type="curve" smooth="yes"/>
      <point x="213" y="1019"/>
      <point x="79" y="904"/>
      <point x="79" y="507" type="curve" smooth="yes"/>
      <point x="79" y="99"/>
      <point x="200" y="-12"/>
      <point x="329" y="-12" type="curve" smooth="yes"/>
      <point x="403" y="-12"/>
      <point x="468" y="50"/>
      <point x="509" y="179" type="curve" smooth="yes"/>
      <point x="510" y="182"/>
      <point x="512" y="184"/>
      <point x="512" y="184" type="curve" smooth="yes"/>
      <point x="513" y="184"/>
      <point x="513" y="182"/>
      <point x="513" y="176" type="curve" smooth="yes"/>
      <point x="514" y="-365" type="line" smooth="yes"/>
      <point x="514" y="-408"/>
      <point x="523" y="-427"/>
    </contour>
    <contour>
      <point x="335" y="50" type="curve" smooth="yes"/>
      <point x="245" y="50"/>
      <point x="157" y="143"/>
      <point x="157" y="507" type="curve" smooth="yes"/>
      <point x="157" y="798"/>
      <point x="238" y="957"/>
      <point x="335" y="957" type="curve" smooth="yes"/>
      <point x="433" y="957"/>
      <point x="514" y="765"/>
      <point x="514" y="507" type="curve" smooth="yes"/>
      <point x="514" y="225"/>
      <point x="428" y="50"/>
    </contour>
  </outline>
</glyph>
<glyph name="u" format="1">
  <advance width="639"/>
  <unicode hex="0075"/>
  <outline>
    <contour>
      <point x="275" y="-12" type="curve" smooth="yes"/>
      <point x="348" y="-12"/>
      <point x="430" y="18"/>
      <point x="470" y="189" type="curve" smooth="yes"/>
      <point x="471" y="196"/>
      <point x="473" y="204"/>
      <point x="475" y="204" type="curve" smooth="yes"/>
      <point x="479" y="204"/>
      <point x="480" y="199"/>
      <point x="481" y="191" type="curve" smooth="yes"/>
      <point x="490" y="54" type="line"/>
      <point x="495" y="4"/>
      <point x="501" y="0"/>
      <point x="517" y="0" type="curve" smooth="yes"/>
      <point x="523" y="0" type="line" smooth="yes"/>
      <point x="538" y="0"/>
      <point x="544" y="24"/>
      <point x="544" y="67" type="curve" smooth="yes"/>
      <point x="544" y="954" type="line" smooth="yes"/>
      <point x="544" y="997"/>
      <point x="535" y="1006"/>
      <point x="520" y="1006" type="curve" smooth="yes"/>
      <point x="488" y="1006" type="line" smooth="yes"/>
      <point x="474" y="1006"/>
      <point x="465" y="997"/>
      <point x="465" y="954" type="curve" smooth="yes"/>
      <point x="465" y="359" type="line" smooth="yes"/>
      <point x="465" y="226"/>
      <point x="384" y="50"/>
      <point x="276" y="50" type="curve" smooth="yes"/>
      <point x="205" y="50"/>
      <point x="165" y="94"/>
      <point x="165" y="319" type="curve" smooth="yes"/>
      <point x="165" y="954" type="line" smooth="yes"/>
      <point x="165" y="997"/>
      <point x="157" y="1006"/>
      <point x="142" y="1006" type="curve" smooth="yes"/>
      <point x="109" y="1006" type="line" smooth="yes"/>
      <point x="95" y="1006"/>
      <point x="86" y="997"/>
      <point x="86" y="954" type="curve" smooth="yes"/>
      <point x="86" y="373" type="line" smooth="yes"/>
      <point x="86" y="37"/>
      <point x="158" y="-12"/>
    </contour>
    <contour>
      <point x="320" y="1006" type="move" name="top"/>
    </contour>
    <contour>
      <point x="575" y="10" type="move" name="ogonek"/>
    </contour>
  </outline>
</glyph>
<glyph name="z" format="1">
  <advance width="484"/>
  <unicode hex="007A"/>
  <outline>
    <contour>
      <point x="96" y="0" type="curve" smooth="yes"/>
      <point x="420" y="0" type="line" smooth="yes"/>
      <point x="425" y="0"/>
      <point x="432" y="3"/>
      <point x="432" y="17" type="curve" smooth="yes"/>
      <point x="432" y="53" type="line" smooth="yes"/>
      <point x="432" y="68"/>
      <point x="425" y="70"/>
      <point x="420" y="70" type="curve" smooth="yes"/>
      <point x="155" y="70" type="line"/>
      <point x="410" y="905" type="line" smooth="yes"/>
      <point x="414" y="919"/>
      <point x="419" y="943"/>
      <point x="419" y="966" type="curve" smooth="yes"/>
      <point x="419" y="987" type="line" smooth="yes"/>
      <point x="419" y="1003"/>
      <point x="406" y="1006"/>
      <point x="399" y="1006" type="curve" smooth="yes"/>
      <point x="89" y="1006" type="line" smooth="yes"/>
      <point x="82" y="1006"/>
      <point x="78" y="1000"/>
      <point x="78" y="987" type="curve" smooth="yes"/>
      <point x="78" y="959" type="line" smooth="yes"/>
      <point x="78" y="939"/>
      <point x="82" y="936"/>
      <point x="89" y="936" type="curve" smooth="yes"/>
      <point x="345" y="936" type="line"/>
      <point x="95" y="111" type="line" smooth="yes"/>
      <point x="84" y="76"/>
      <point x="77" y="62"/>
      <point x="77" y="39" type="curve" smooth="yes"/>
      <point x="77" y="15" type="line" smooth="yes"/>
      <point x="77" y="3"/>
      <point x="90" y="0"/>
    </contour>
    <contour>
      <point x="242" y="1006" type="move" name="top"/>
    </contour>
  </outline>
</glyph>
<glyph name="braceleft" format="1">
  <advance width="499"/>
  <unicode hex="007B"/>
  <outline>
    <contour>
      <point x="376" y="1543" type="curve" smooth="yes"/>
      <point x="333" y="1543" type="line" smooth="yes"/>
      <point x="239" y="1543"/>
      <point x="217" y="1533"/>
      <point x="217" y="1186" type="curve" smooth="yes"/>
      <point x="217" y="950" type="line" smooth="yes"/>
      <point x="217" y="798"/>
      <point x="213" y="782"/>
      <point x="171" y="782" type="curve" smooth="yes"/>
      <point x="127" y="782"/>
      <point x="105" y="786"/>
      <point x="105" y="741" type="curve" smooth="yes"/>
      <point x="105" y="736" type="line" smooth="yes"/>
      <point x="105" y="684"/>
      <point x="126" y="690"/>
      <point x="171" y="690" type="curve" smooth="yes"/>
      <point x="213" y="690"/>
      <point x="217" y="674"/>
      <point x="217" y="522" type="curve" smooth="yes"/>
      <point x="217" y="293" type="line" smooth="yes"/>
      <point x="217" y="-54"/>
      <point x="239" y="-65"/>
      <point x="333" y="-65" type="curve" smooth="yes"/>
      <point x="376" y="-65" type="line" smooth="yes"/>
      <point x="391" y="-65"/>
      <point x="403" y="-59"/>
      <point x="403" y="-35" type="curve" smooth="yes"/>
      <point x="403" y="-16" type="line" smooth="yes"/>
      <point x="403" y="6"/>
      <point x="390" y="9"/>
      <point x="345" y="9" type="curve" smooth="yes"/>
      <point x="292" y="9"/>
      <point x="292" y="11"/>
      <point x="292" y="327" type="curve" smooth="yes"/>
      <point x="292" y="569" type="line" smooth="yes"/>
      <point x="292" y="697"/>
      <point x="281" y="730"/>
      <point x="227" y="740" type="curve"/>
      <point x="225" y="740"/>
      <point x="225" y="742"/>
      <point x="227" y="742" type="curve"/>
      <point x="281" y="750"/>
      <point x="292" y="781"/>
      <point x="292" y="909" type="curve" smooth="yes"/>
      <point x="292" y="1151" type="line" smooth="yes"/>
      <point x="292" y="1467"/>
      <point x="292" y="1469"/>
      <point x="345" y="1469" type="curve" smooth="yes"/>
      <point x="390" y="1469"/>
      <point x="403" y="1472"/>
      <point x="403" y="1494" type="curve" smooth="yes"/>
      <point x="403" y="1513" type="line" smooth="yes"/>
      <point x="403" y="1537"/>
      <point x="391" y="1543"/>
    </contour>
  </outline>
</glyph>
<glyph name="asciitilde" format="1">
  <advance width="1399"/>
  <unicode hex="007E"/>
  <outline>
    <contour>
      <point x="-267" y="163" type="curve" smooth="yes"/>
      <point x="-71" y="167"/>
      <point x="159" y="341"/>
      <point x="302" y="348" type="curve" smooth="yes"/>
      <point x="366" y="351"/>
      <point x="399" y="278"/>
      <point x="444" y="204" type="curve" smooth="yes"/>
      <point x="453" y="189"/>
      <point x="465" y="173"/>
      <point x="485" y="176" type="curve" smooth="yes"/>
      <point x="524.0" y="182.0"/>
      <point x="522.0" y="196.0"/>
      <point x="522" y="220" type="curve" smooth="yes"/>
      <point x="522" y="228"/>
      <point x="520" y="237"/>
      <point x="515" y="247" type="curve" smooth="yes"/>
      <point x="459" y="363"/>
      <point x="417" y="431"/>
      <point x="287" y="426" type="curve" smooth="yes"/>
      <point x="112" y="419"/>
      <point x="-100" y="242"/>
      <point x="-253" y="241" type="curve" smooth="yes"/>
      <point x="-346" y="240"/>
      <point x="-397" y="281"/>
      <point x="-439" y="402" type="curve" smooth="yes"/>
      <point x="-442" y="410"/>
      <point x="-445" y="429"/>
      <point x="-469" y="429" type="curve" smooth="yes"/>
      <point x="-476" y="429"/>
      <point x="-485" y="427"/>
      <point x="-495" y="422" type="curve" smooth="yes"/>
      <point x="-505" y="418" type="line"/>
      <point x="-528" y="407"/>
      <point x="-521" y="398"/>
      <point x="-521" y="385" type="curve" smooth="yes"/>
      <point x="-521" y="377"/>
      <point x="-520" y="370"/>
      <point x="-516" y="360" type="curve" smooth="yes"/>
      <point x="-487" y="282"/>
      <point x="-431" y="160"/>
    </contour>
  </outline>
</glyph>
<glyph name="cent" format="1">
  <advance width="504"/>
  <unicode hex="00A2"/>
  <outline>
    <contour>
      <point x="332" y="-200" type="curve" smooth="yes"/>
      <point x="341" y="-200" type="line" smooth="yes"/>
      <point x="356" y="-200"/>
      <point x="360" y="-183"/>
      <point x="360" y="-152" type="curve" smooth="yes"/>
      <point x="360" y="-10" type="line"/>
      <point x="389" y="-7"/>
      <point x="420" y="-1"/>
      <point x="444" y="10" type="curve"/>
      <point x="453" y="21" type="line"/>
      <point x="453" y="60" type="line"/>
      <point x="444" y="70" type="line"/>
      <point x="415" y="60"/>
      <point x="386" y="52"/>
      <point x="360" y="50" type="curve"/>
      <point x="360" y="956" type="line"/>
      <point x="387" y="954"/>
      <point x="414" y="947"/>
      <point x="444" y="939" type="curve"/>
      <point x="451" y="949" type="line"/>
      <point x="451" y="989" type="line"/>
      <point x="444" y="1000" type="line"/>
      <point x="418" y="1010"/>
      <point x="386" y="1016"/>
      <point x="360" y="1018" type="curve"/>
      <point x="360" y="1193" type="line" smooth="yes"/>
      <point x="360" y="1222"/>
      <point x="356" y="1238"/>
      <point x="341" y="1238" type="curve" smooth="yes"/>
      <point x="332" y="1238" type="line" smooth="yes"/>
      <point x="318" y="1238"/>
      <point x="314" y="1222"/>
      <point x="314" y="1193" type="curve" smooth="yes"/>
      <point x="314" y="1018" type="line"/>
      <point x="206" y="1013"/>
      <point x="80" y="954"/>
      <point x="80" y="506" type="curve" smooth="yes"/>
      <point x="80" y="64"/>
      <point x="207" y="-6"/>
      <point x="314" y="-12" type="curve"/>
      <point x="314" y="-152" type="line" smooth="yes"/>
      <point x="314" y="-183"/>
      <point x="318" y="-200"/>
    </contour>
    <contour>
      <point x="314" y="53" type="line"/>
      <point x="232" y="68"/>
      <point x="158" y="151"/>
      <point x="158" y="506" type="curve" smooth="yes"/>
      <point x="158" y="882"/>
      <point x="239" y="945"/>
      <point x="314" y="955" type="curve"/>
    </contour>
  </outline>
</glyph>
<glyph name="yen" format="1">
  <advance width="606"/>
  <unicode hex="00A5"/>
  <outline>
    <contour>
      <point x="288.0" y="0.0" type="curve" smooth="yes"/>
      <point x="321.0" y="0.0" type="line" smooth="yes"/>
      <point x="336.0" y="0.0"/>
      <point x="343.0" y="10.0"/>
      <point x="343.0" y="53.0" type="curve" smooth="yes"/>
      <point x="343.0" y="389.0" type="line"/>
      <point x="446.0" y="389.0" type="line" smooth="yes"/>
      <point x="461.0" y="389.0"/>
      <point x="466.0" y="395.0"/>
      <point x="466.0" y="418.0" type="curve" smooth="yes"/>
      <point x="466.0" y="430.0" type="line" smooth="yes"/>
      <point x="466.0" y="453.0"/>
      <point x="461.0" y="459.0"/>
      <point x="446.0" y="459.0" type="curve" smooth="yes"/>
      <point x="343.0" y="459.0" type="line"/>
      <point x="343.0" y="565.0" type="line"/>
      <point x="446.0" y="565.0" type="line" smooth="yes"/>
      <point x="461.0" y="565.0"/>
      <point x="466.0" y="571.0"/>
      <point x="466.0" y="594.0" type="curve" smooth="yes"/>
      <point x="466.0" y="606.0" type="line" smooth="yes"/>
      <point x="466.0" y="629.0"/>
      <point x="461.0" y="635.0"/>
      <point x="446.0" y="635.0" type="curve" smooth="yes"/>
      <point x="350.0" y="635.0" type="line"/>
      <point x="557.0" y="1381.0" type="line"/>
      <point x="563.0" y="1399.0"/>
      <point x="563.0" y="1407.0"/>
      <point x="563.0" y="1418.0" type="curve" smooth="yes"/>
      <point x="563.0" y="1431.0"/>
      <point x="557.0" y="1438.0"/>
      <point x="542.0" y="1438.0" type="curve" smooth="yes"/>
      <point x="523.0" y="1438.0" type="line" smooth="yes"/>
      <point x="507.0" y="1438.0"/>
      <point x="491.0" y="1425.0"/>
      <point x="485.0" y="1401.0" type="curve" smooth="yes"/>
      <point x="305.0" y="719.0" type="line"/>
      <point x="305.0" y="719.0"/>
      <point x="303.0" y="719.0"/>
      <point x="303.0" y="719.0" type="curve"/>
      <point x="124.0" y="1401.0" type="line" smooth="yes"/>
      <point x="116.0" y="1430.0"/>
      <point x="98.0" y="1438.0"/>
      <point x="84.0" y="1438.0" type="curve" smooth="yes"/>
      <point x="65.0" y="1438.0" type="line" smooth="yes"/>
      <point x="51.0" y="1438.0"/>
      <point x="43.0" y="1432.0"/>
      <point x="43.0" y="1420.0" type="curve" smooth="yes"/>
      <point x="43.0" y="1409.0"/>
      <point x="44.0" y="1401.0"/>
      <point x="51.0" y="1381.0" type="curve"/>
      <point x="257.0" y="635.0" type="line"/>
      <point x="152.0" y="635.0" type="line" smooth="yes"/>
      <point x="137.0" y="635.0"/>
      <point x="133.0" y="629.0"/>
      <point x="133.0" y="606.0" type="curve" smooth="yes"/>
      <point x="133.0" y="594.0" type="line" smooth="yes"/>
      <point x="133.0" y="571.0"/>
      <point x="137.0" y="565.0"/>
      <point x="152.0" y="565.0" type="curve" smooth="yes"/>
      <point x="265.0" y="565.0" type="line"/>
      <point x="265.0" y="459.0" type="line"/>
      <point x="152.0" y="459.0" type="line" smooth="yes"/>
      <point x="137.0" y="459.0"/>
      <point x="133.0" y="453.0"/>
      <point x="133.0" y="430.0" type="curve" smooth="yes"/>
      <point x="133.0" y="418.0" type="line" smooth="yes"/>
      <point x="133.0" y="395.0"/>
      <point x="137.0" y="389.0"/>
      <point x="152.0" y="389.0" type="curve" smooth="yes"/>
      <point x="265.0" y="389.0" type="line"/>
      <point x="265.0" y="53.0" type="line" smooth="yes"/>
      <point x="265.0" y="10.0"/>
      <point x="273.0" y="0.0"/>
    </contour>
  </outline>
</glyph>
<glyph name="dieresis" format="1">
  <advance width="254"/>
  <unicode hex="00A8"/>
  <outline>
    <contour>
      <point x="100" y="0" type="curve" smooth="yes"/>
      <point x="143" y="0" type="line" smooth="yes"/>
      <point x="158" y="0"/>
      <point x="170" y="25"/>
      <point x="170" y="57" type="curve" smooth="yes"/>
      <point x="170" y="58" type="line" smooth="yes"/>
      <point x="170" y="90"/>
      <point x="158" y="115"/>
      <point x="143" y="115" type="curve" smooth="yes"/>
      <point x="100" y="115" type="line" smooth="yes"/>
      <point x="85" y="115"/>
      <point x="73" y="90"/>
      <point x="73" y="58" type="curve" smooth="yes"/>
      <point x="73" y="57" type="line" smooth="yes"/>
      <point x="73" y="25"/>
      <point x="85" y="0"/>
    </contour>
    <contour>
      <point x="317" y="0" type="curve" smooth="yes"/>
      <point x="360" y="0" type="line" smooth="yes"/>
      <point x="375" y="0"/>
      <point x="386" y="25"/>
      <point x="386" y="57" type="curve" smooth="yes"/>
      <point x="386" y="58" type="line" smooth="yes"/>
      <point x="386" y="90"/>
      <point x="375" y="115"/>
      <point x="360" y="115" type="curve" smooth="yes"/>
      <point x="317" y="115" type="line" smooth="yes"/>
      <point x="303" y="115"/>
      <point x="292" y="90"/>
      <point x="292" y="58" type="curve" smooth="yes"/>
      <point x="292" y="57" type="line" smooth="yes"/>
      <point x="292" y="25"/>
      <point x="303" y="0"/>
    </contour>
    <contour>
      <point x="229.5" y="1006" type="move" name="_top"/>
    </contour>
  </outline>
</glyph>
<glyph name="copyright" format="1">
  <advance width="1306"/>
  <unicode hex="00A9"/>
  <outline>
    <contour>
      <point x="676" y="338" type="curve" smooth="yes"/>
      <point x="756" y="338"/>
      <point x="783" y="354"/>
      <point x="846" y="390" type="curve" smooth="yes"/>
      <point x="854" y="395"/>
      <point x="858" y="404"/>
      <point x="858" y="414" type="curve" smooth="yes"/>
      <point x="858" y="434"/>
      <point x="845" y="454"/>
      <point x="828" y="454" type="curve" smooth="yes"/>
      <point x="826" y="454"/>
      <point x="824" y="453"/>
      <point x="821" y="452" type="curve" smooth="yes"/>
      <point x="769" y="425"/>
      <point x="735" y="406"/>
      <point x="677" y="406" type="curve" smooth="yes"/>
      <point x="542" y="406"/>
      <point x="443" y="511"/>
      <point x="443" y="726" type="curve" smooth="yes"/>
      <point x="443" y="933"/>
      <point x="544" y="1044"/>
      <point x="682" y="1044" type="curve" smooth="yes"/>
      <point x="740" y="1044"/>
      <point x="792" y="1016"/>
      <point x="834" y="985" type="curve" smooth="yes"/>
      <point x="836" y="984"/>
      <point x="838" y="983"/>
      <point x="839" y="983" type="curve" smooth="yes"/>
      <point x="852" y="983"/>
      <point x="866" y="1008"/>
      <point x="866" y="1026" type="curve" smooth="yes"/>
      <point x="866" y="1032"/>
      <point x="865" y="1037"/>
      <point x="862" y="1040" type="curve" smooth="yes"/>
      <point x="820" y="1080"/>
      <point x="759" y="1111"/>
      <point x="671" y="1111" type="curve" smooth="yes"/>
      <point x="527" y="1111"/>
      <point x="369" y="1002"/>
      <point x="369" y="727" type="curve" smooth="yes"/>
      <point x="369" y="465"/>
      <point x="502" y="338"/>
    </contour>
    <contour>
      <point x="655" y="51" type="curve" smooth="yes"/>
      <point x="293" y="51"/>
      <point x="169" y="390"/>
      <point x="169" y="714" type="curve" smooth="yes"/>
      <point x="169" y="1049"/>
      <point x="293" y="1388"/>
      <point x="655" y="1388" type="curve" smooth="yes"/>
      <point x="1017" y="1388"/>
      <point x="1141" y="1049"/>
      <point x="1141" y="714" type="curve" smooth="yes"/>
      <point x="1141" y="390"/>
      <point x="1017" y="51"/>
    </contour>
    <contour>
      <point x="653" y="-13" type="curve" smooth="yes"/>
      <point x="1054" y="-13"/>
      <point x="1216" y="331"/>
      <point x="1216" y="718" type="curve" smooth="yes"/>
      <point x="1216" y="1105"/>
      <point x="1054" y="1451"/>
      <point x="653" y="1451" type="curve" smooth="yes"/>
      <point x="254" y="1451"/>
      <point x="90" y="1105"/>
      <point x="90" y="718" type="curve" smooth="yes"/>
      <point x="90" y="331"/>
      <point x="254" y="-13"/>
    </contour>
  </outline>
</glyph>
<glyph name="logicalnot" format="1">
  <advance width="801"/>
  <unicode hex="00AC"/>
  <outline>
    <contour>
      <point x="643" y="310" type="curve" smooth="yes"/>
      <point x="658" y="310" type="line" smooth="yes"/>
      <point x="676" y="310"/>
      <point x="689" y="314"/>
      <point x="689" y="355" type="curve" smooth="yes"/>
      <point x="689" y="613" type="line" smooth="yes"/>
      <point x="689" y="645"/>
      <point x="674" y="648"/>
      <point x="658" y="648" type="curve" smooth="yes"/>
      <point x="166" y="648" type="line" smooth="yes"/>
      <point x="149" y="648"/>
      <point x="135" y="645"/>
      <point x="135" y="613" type="curve" smooth="yes"/>
      <point x="135" y="606" type="line" smooth="yes"/>
      <point x="135" y="575"/>
      <point x="149" y="571"/>
      <point x="166" y="571" type="curve" smooth="yes"/>
      <point x="595" y="571" type="line" smooth="yes"/>
      <point x="604" y="571"/>
      <point x="610" y="569"/>
      <point x="610" y="549" type="curve" smooth="yes"/>
      <point x="610" y="355" type="line" smooth="yes"/>
      <point x="610" y="314"/>
      <point x="624" y="310"/>
    </contour>
  </outline>
</glyph>
<glyph name="guillemotright" format="1">
  <advance width="663"/>
  <unicode hex="00BB"/>
  <outline>
    <contour>
      <point x="57.1699" y="241.26" type="curve" smooth="yes"/>
      <point x="61.3125" y="241.26"/>
      <point x="66.7822" y="247.387"/>
      <point x="72.6055" y="253" type="curve" smooth="yes"/>
      <point x="349.605" y="520" type="line" smooth="yes"/>
      <point x="372.013" y="541.599"/>
      <point x="375" y="556.258"/>
      <point x="375" y="578.318" type="curve" smooth="yes"/>
      <point x="374.78" y="632.225" type="line" smooth="yes"/>
      <point x="374.78" y="655.291"/>
      <point x="372.296" y="667.018"/>
      <point x="348.605" y="692" type="curve" smooth="yes"/>
      <point x="73.6055" y="982" type="line" smooth="yes"/>
      <point x="68.2881" y="987.607"/>
      <point x="63.876" y="990.521"/>
      <point x="60.3477" y="990.521" type="curve" smooth="yes"/>
      <point x="53.124" y="990.521"/>
      <point x="49.6055" y="978.309"/>
      <point x="49.6055" y="952" type="curve" smooth="yes"/>
      <point x="49.6055" y="937" type="line" smooth="yes"/>
      <point x="49.6055" y="894"/>
      <point x="53.249" y="893.647"/>
      <point x="72.6055" y="873" type="curve" smooth="yes"/>
      <point x="312.605" y="617" type="line" smooth="yes"/>
      <point x="315.071" y="614.37"/>
      <point x="315.605" y="609"/>
      <point x="315.605" y="604" type="curve" smooth="yes"/>
      <point x="315.605" y="600"/>
      <point x="314.649" y="594.954"/>
      <point x="311.605" y="592" type="curve" smooth="yes"/>
      <point x="73.6055" y="361" type="line" smooth="yes"/>
      <point x="53.5" y="341.486"/>
      <point x="49.6055" y="344"/>
      <point x="49.6055" y="301" type="curve" smooth="yes"/>
      <point x="49.6055" y="273" type="line" smooth="yes"/>
      <point x="49.6055" y="248.811"/>
      <point x="52.5703" y="241.26"/>
    </contour>
    <contour>
      <point x="296.93" y="241.651" type="curve" smooth="yes"/>
      <point x="301.198" y="241.651"/>
      <point x="306.69" y="247.816"/>
      <point x="312.068" y="253" type="curve" smooth="yes"/>
      <point x="589.068" y="520" type="line" smooth="yes"/>
      <point x="611.476" y="541.599"/>
      <point x="614.463" y="556.258"/>
      <point x="614.463" y="578.318" type="curve" smooth="yes"/>
      <point x="614.243" y="632.225" type="line" smooth="yes"/>
      <point x="614.243" y="655.291"/>
      <point x="611.759" y="667.018"/>
      <point x="588.068" y="692" type="curve" smooth="yes"/>
      <point x="313.068" y="982" type="line" smooth="yes"/>
      <point x="307.751" y="987.607"/>
      <point x="303.339" y="990.521"/>
      <point x="299.811" y="990.521" type="curve" smooth="yes"/>
      <point x="292.587" y="990.521"/>
      <point x="289.068" y="978.309"/>
      <point x="289.068" y="952" type="curve" smooth="yes"/>
      <point x="289.068" y="937" type="line" smooth="yes"/>
      <point x="289.068" y="894"/>
      <point x="292.712" y="893.647"/>
      <point x="312.068" y="873" type="curve" smooth="yes"/>
      <point x="552.068" y="617" type="line" smooth="yes"/>
      <point x="554.534" y="614.37"/>
      <point x="555.068" y="609"/>
      <point x="555.068" y="604" type="curve" smooth="yes"/>
      <point x="555.068" y="600"/>
      <point x="554.112" y="594.954"/>
      <point x="551.068" y="592" type="curve" smooth="yes"/>
      <point x="313.068" y="361" type="line" smooth="yes"/>
      <point x="292.963" y="341.486"/>
      <point x="289.068" y="344"/>
      <point x="289.068" y="301" type="curve" smooth="yes"/>
      <point x="289.068" y="273" type="line" smooth="yes"/>
      <point x="289.068" y="249"/>
      <point x="292.27" y="241.651"/>
    </contour>
  </outline>
</glyph>
<glyph name="AE" format="1">
  <advance width="977.382112384"/>
  <unicode hex="00C6"/>
  <outline>
    <contour>
      <point x="71.3819123843" y="0" type="curve" smooth="yes"/>
      <point x="98.3819123843" y="0" type="line" smooth="yes"/>
      <point x="119.381912384" y="0"/>
      <point x="131.381912384" y="10"/>
      <point x="141.381912384" y="53" type="curve"/>
      <point x="230.382112384" y="354" type="line"/>
      <point x="233.382112384" y="360" type="line"/>
      <point x="527.382112384" y="360" type="line"/>
      <point x="527.382112384" y="32" type="line" smooth="yes"/>
      <point x="527.382112384" y="0"/>
      <point x="535.382112384" y="0"/>
      <point x="549.382112384" y="0" type="curve" smooth="yes"/>
      <point x="889.382112384" y="0" type="line" smooth="yes"/>
      <point x="903.382112384" y="0"/>
      <point x="911.382112384" y="0"/>
      <point x="911.382112384" y="27" type="curve" smooth="yes"/>
      <point x="911.382112384" y="33" type="line" smooth="yes"/>
      <point x="911.382112384" y="60"/>
      <point x="903.382112384" y="60"/>
      <point x="889.382112384" y="60" type="curve" smooth="yes"/>
      <point x="605.382112384" y="60" type="line"/>
      <point x="605.382112384" y="699" type="line"/>
      <point x="610.382112384" y="716" type="line"/>
      <point x="864.382112384" y="716" type="line" smooth="yes"/>
      <point x="879.382112384" y="716"/>
      <point x="887.382112384" y="716"/>
      <point x="887.382112384" y="743" type="curve" smooth="yes"/>
      <point x="887.382112384" y="750" type="line" smooth="yes"/>
      <point x="887.382112384" y="775"/>
      <point x="879.382112384" y="775"/>
      <point x="864.382112384" y="775" type="curve" smooth="yes"/>
      <point x="609.382112384" y="775" type="line"/>
      <point x="605.382112384" y="783" type="line"/>
      <point x="605.382112384" y="1353" type="line" smooth="yes"/>
      <point x="605.382112384" y="1373"/>
      <point x="606.382112384" y="1378"/>
      <point x="614.382112384" y="1378" type="curve" smooth="yes"/>
      <point x="849.382112384" y="1378" type="line" smooth="yes"/>
      <point x="863.382112384" y="1378"/>
      <point x="871.382112384" y="1378"/>
      <point x="871.382112384" y="1405" type="curve" smooth="yes"/>
      <point x="871.382112384" y="1411" type="line" smooth="yes"/>
      <point x="871.382112384" y="1438"/>
      <point x="863.382112384" y="1438"/>
      <point x="849.382112384" y="1438" type="curve" smooth="yes"/>
      <point x="503.382112384" y="1438" type="line" smooth="yes"/>
      <point x="484.382112384" y="1438"/>
      <point x="472.382112384" y="1420"/>
      <point x="460.382112384" y="1380" type="curve" smooth="yes"/>
      <point x="63.3819123843" y="53" type="line"/>
      <point x="53.3819523843" y="39"/>
      <point x="60.3819523843" y="42"/>
      <point x="60.3819523843" y="32" type="curve" smooth="yes"/>
      <point x="60.3819523843" y="11"/>
      <point x="64.3819123843" y="0"/>
    </contour>
    <contour>
      <point x="269.382112384" y="420" type="line" smooth="yes"/>
      <point x="260.382112384" y="420.0"/>
      <point x="259.382112384" y="421.0"/>
      <point x="262.382112384" y="436" type="curve" smooth="yes"/>
      <point x="523.92161423" y="1352.83906049" type="line"/>
      <point x="527.382112384" y="1364.97" type="line"/>
      <point x="527.382112384" y="1350.08095757" type="line"/>
      <point x="527.382112384" y="436.061692244" type="line"/>
      <point x="527.382112384" y="420" type="line"/>
    </contour>
    <contour>
      <point x="422.000112384" y="1438" type="move" name="top"/>
    </contour>
  </outline>
</glyph>
<glyph name="Eth" format="1">
  <advance width="883"/>
  <unicode hex="00D0"/>
  <outline>
    <contour>
      <point x="193" y="60" type="line" smooth="yes"/>
      <point x="185" y="60"/>
      <point x="182" y="64"/>
      <point x="182" y="78" type="curve" smooth="yes"/>
      <point x="182" y="700" type="line"/>
      <point x="388" y="700" type="line"/>
      <point x="399" y="700"/>
      <point x="408" y="700"/>
      <point x="411" y="718" type="curve"/>
      <point x="411" y="735" type="line"/>
      <point x="411" y="760"/>
      <point x="401" y="760"/>
      <point x="388" y="760" type="curve" smooth="yes"/>
      <point x="182" y="760" type="line"/>
      <point x="182" y="1364" type="line" smooth="yes"/>
      <point x="182" y="1374"/>
      <point x="186" y="1378"/>
      <point x="192" y="1378" type="curve" smooth="yes"/>
      <point x="412" y="1378" type="line" smooth="yes"/>
      <point x="646" y="1378"/>
      <point x="718" y="1162"/>
      <point x="718" y="721" type="curve" smooth="yes"/>
      <point x="718" y="222"/>
      <point x="663" y="60"/>
      <point x="412" y="60" type="curve" smooth="yes"/>
    </contour>
    <contour>
      <point x="126" y="0" type="curve" smooth="yes"/>
      <point x="412" y="0" type="line" smooth="yes"/>
      <point x="693" y="0"/>
      <point x="796" y="141"/>
      <point x="796" y="721" type="curve" smooth="yes"/>
      <point x="796" y="1293"/>
      <point x="653" y="1438"/>
      <point x="412" y="1438" type="curve" smooth="yes"/>
      <point x="126" y="1438" type="line" smooth="yes"/>
      <point x="112" y="1438"/>
      <point x="104" y="1434"/>
      <point x="104" y="1411" type="curve" smooth="yes"/>
      <point x="104" y="760" type="line"/>
      <point x="24" y="760" type="line" smooth="yes"/>
      <point x="11" y="760"/>
      <point x="1" y="760"/>
      <point x="1" y="733" type="curve" smooth="yes"/>
      <point x="1" y="725" type="line" smooth="yes"/>
      <point x="1" y="700"/>
      <point x="11" y="700"/>
      <point x="24" y="700" type="curve" smooth="yes"/>
      <point x="104" y="700" type="line"/>
      <point x="104" y="37" type="line" smooth="yes"/>
      <point x="104" y="4"/>
      <point x="112" y="0"/>
    </contour>
  </outline>
</glyph>
<glyph name="multiply" format="1">
  <advance width="801"/>
  <unicode hex="00D7"/>
  <outline>
    <contour>
      <point x="206" y="392" type="line"/>
      <point x="220" y="379"/>
      <point x="232" y="372"/>
      <point x="261" y="401" type="curve" smooth="yes"/>
      <point x="413" y="552" type="line"/>
      <point x="563" y="402" type="line" smooth="yes"/>
      <point x="592" y="373"/>
      <point x="605" y="380"/>
      <point x="618" y="393" type="curve" smooth="yes"/>
      <point x="629" y="404" type="line" smooth="yes"/>
      <point x="642" y="416"/>
      <point x="648" y="428"/>
      <point x="619" y="457" type="curve" smooth="yes"/>
      <point x="469" y="608" type="line"/>
      <point x="619" y="759" type="line" smooth="yes"/>
      <point x="648" y="788"/>
      <point x="641" y="800"/>
      <point x="628" y="814" type="curve"/>
      <point x="617" y="824" type="line" smooth="yes"/>
      <point x="604" y="837"/>
      <point x="592" y="843"/>
      <point x="563" y="814" type="curve" smooth="yes"/>
      <point x="413" y="664" type="line"/>
      <point x="261" y="815" type="line" smooth="yes"/>
      <point x="232" y="844"/>
      <point x="220" y="838"/>
      <point x="208" y="825" type="curve" smooth="yes"/>
      <point x="197" y="814" type="line" smooth="yes"/>
      <point x="184" y="801"/>
      <point x="177" y="788"/>
      <point x="206" y="759" type="curve" smooth="yes"/>
      <point x="357" y="608" type="line"/>
      <point x="206" y="457" type="line" smooth="yes"/>
      <point x="177" y="428"/>
      <point x="183" y="416"/>
      <point x="196" y="403" type="curve" smooth="yes"/>
    </contour>
  </outline>
</glyph>
<glyph name="Oslash" format="1">
  <advance width="846"/>
  <unicode hex="00D8"/>
  <outline>
    <contour>
      <point x="288" y="-205" type="curve" smooth="yes"/>
      <point x="326" y="-205" type="line" smooth="yes"/>
      <point x="331" y="-205"/>
      <point x="337" y="-192"/>
      <point x="340" y="-172" type="curve" smooth="yes"/>
      <point x="363" y="-10" type="line"/>
      <point x="381" y="-12"/>
      <point x="401" y="-13"/>
      <point x="422" y="-13" type="curve" smooth="yes"/>
      <point x="674" y="-13"/>
      <point x="756" y="125"/>
      <point x="756" y="724" type="curve" smooth="yes"/>
      <point x="756" y="1154"/>
      <point x="706" y="1355"/>
      <point x="565" y="1423" type="curve"/>
      <point x="592" y="1614" type="line" smooth="yes"/>
      <point x="594" y="1629"/>
      <point x="591" y="1647"/>
      <point x="586" y="1647" type="curve" smooth="yes"/>
      <point x="550" y="1647" type="line" smooth="yes"/>
      <point x="543" y="1647"/>
      <point x="536" y="1634"/>
      <point x="534" y="1614" type="curve" smooth="yes"/>
      <point x="510" y="1442" type="line"/>
      <point x="483" y="1448"/>
      <point x="454" y="1451"/>
      <point x="422" y="1451" type="curve" smooth="yes"/>
      <point x="174" y="1451"/>
      <point x="90" y="1266"/>
      <point x="90" y="724" type="curve" smooth="yes"/>
      <point x="90" y="238"/>
      <point x="147" y="52"/>
      <point x="307" y="2" type="curve"/>
      <point x="282" y="-172" type="line" smooth="yes"/>
      <point x="279" y="-187"/>
      <point x="284" y="-205"/>
    </contour>
    <contour>
      <point x="316" y="72" type="line"/>
      <point x="211" y="124"/>
      <point x="168" y="291"/>
      <point x="168" y="724" type="curve" smooth="yes"/>
      <point x="168" y="1212"/>
      <point x="233" y="1388"/>
      <point x="422" y="1388" type="curve" smooth="yes"/>
      <point x="451" y="1388"/>
      <point x="477" y="1384"/>
      <point x="500" y="1377" type="curve"/>
    </contour>
    <contour>
      <point x="422" y="51" type="curve" smooth="yes"/>
      <point x="404" y="51"/>
      <point x="388" y="52"/>
      <point x="372" y="55" type="curve"/>
      <point x="554" y="1347" type="line"/>
      <point x="644" y="1273"/>
      <point x="678" y="1090"/>
      <point x="678" y="724" type="curve" smooth="yes"/>
      <point x="678" y="154"/>
      <point x="609" y="51"/>
    </contour>
    <contour>
      <point x="423" y="1438" type="move" name="top"/>
    </contour>
  </outline>
</glyph>
<glyph name="ae" format="1">
  <advance width="1048"/>
  <unicode hex="00E6"/>
  <outline>
    <contour>
      <point x="273" y="-12" type="curve" smooth="yes"/>
      <point x="405.563" y="-12"/>
      <point x="467.543" y="79.873"/>
      <point x="495.984" y="230.395" type="curve"/>
      <point x="532.569" y="72.0557"/>
      <point x="610.829" y="-12"/>
      <point x="711" y="-12" type="curve" smooth="yes"/>
      <point x="861" y="-12"/>
      <point x="913" y="120"/>
      <point x="913" y="256" type="curve" smooth="yes"/>
      <point x="913" y="289" type="line" smooth="yes"/>
      <point x="913" y="299"/>
      <point x="908" y="302"/>
      <point x="903" y="302" type="curve" smooth="yes"/>
      <point x="864" y="302" type="line" smooth="yes"/>
      <point x="862" y="302"/>
      <point x="860" y="291"/>
      <point x="859" y="284" type="curve" smooth="yes"/>
      <point x="852" y="200"/>
      <point x="851" y="50"/>
      <point x="717" y="50" type="curve" smooth="yes"/>
      <point x="558" y="50"/>
      <point x="542" y="317"/>
      <point x="541" y="477" type="curve" smooth="yes"/>
      <point x="541" y="485"/>
      <point x="544" y="487"/>
      <point x="547" y="487" type="curve" smooth="yes"/>
      <point x="878" y="487" type="line" smooth="yes"/>
      <point x="917.0" y="487.0"/>
      <point x="923" y="607"/>
      <point x="923" y="607" type="curve"/>
      <point x="910" y="861"/>
      <point x="866" y="1019"/>
      <point x="703" y="1019" type="curve" smooth="yes"/>
      <point x="626.387" y="1019"/>
      <point x="540.077" y="963.835"/>
      <point x="510.891" y="815.407" type="curve"/>
      <point x="491.265" y="954.305"/>
      <point x="420.972" y="1018"/>
      <point x="312" y="1018" type="curve" smooth="yes"/>
      <point x="157" y="1018"/>
      <point x="108" y="881"/>
      <point x="93" y="821" type="curve" smooth="yes"/>
      <point x="88.38785" y="802.5515"/>
      <point x="85.431575" y="789.0265"/>
      <point x="88.356475" y="779.001125" type="curve" smooth="yes"/>
      <point x="91.281375" y="768.97575"/>
      <point x="100.08745" y="762.45"/>
      <point x="119" y="758" type="curve" smooth="yes"/>
      <point x="134" y="754"/>
      <point x="145.017" y="760.067"/>
      <point x="152" y="788" type="curve" smooth="yes"/>
      <point x="164" y="836"/>
      <point x="192" y="957"/>
      <point x="314" y="957" type="curve" smooth="yes"/>
      <point x="443" y="957"/>
      <point x="459" y="805"/>
      <point x="459" y="650" type="curve" smooth="yes"/>
      <point x="459" y="608" type="line"/>
      <point x="391" y="593"/>
      <point x="71" y="584"/>
      <point x="71" y="238" type="curve" smooth="yes"/>
      <point x="71" y="92"/>
      <point x="126" y="-12"/>
    </contour>
    <contour>
      <point x="281" y="50" type="curve" smooth="yes"/>
      <point x="178" y="50"/>
      <point x="141" y="122"/>
      <point x="140" y="242" type="curve" smooth="yes"/>
      <point x="139" y="374"/>
      <point x="197" y="499"/>
      <point x="383" y="540" type="curve" smooth="yes"/>
      <point x="386.088" y="540.681"/>
      <point x="454" y="551"/>
      <point x="455" y="551" type="curve" smooth="yes"/>
      <point x="461" y="551"/>
      <point x="461" y="507"/>
      <point x="461" y="493" type="curve" smooth="yes"/>
      <point x="461" y="245"/>
      <point x="422" y="50"/>
    </contour>
    <contour>
      <point x="545" y="539" type="line" smooth="yes"/>
      <point x="543" y="539"/>
      <point x="542.833" y="598.003"/>
      <point x="543" y="602" type="curve" smooth="yes"/>
      <point x="554" y="866"/>
      <point x="621" y="957"/>
      <point x="702" y="957" type="curve" smooth="yes"/>
      <point x="824" y="957"/>
      <point x="849" y="802"/>
      <point x="858" y="541" type="curve"/>
      <point x="858" y="539" type="line"/>
    </contour>
    <contour>
      <point x="524" y="1006" type="move" name="top"/>
    </contour>
  </outline>
</glyph>
<glyph name="oslash" format="1">
  <advance width="673.0"/>
  <unicode hex="00F8"/>
  <outline>
    <contour>
      <point x="144.194938533" y="-70" type="line" smooth="yes"/>
      <point x="148.194938533" y="-71"/>
      <point x="154.194938533" y="-64"/>
      <point x="158.194938533" y="-51" type="curve"/>
      <point x="575.194938533" y="1067" type="line" smooth="yes"/>
      <point x="580.194938533" y="1076"/>
      <point x="581.194938533" y="1089"/>
      <point x="578.194938533" y="1089" type="curve"/>
      <point x="550.194938533" y="1102" type="line" smooth="yes"/>
      <point x="547.194938533" y="1103"/>
      <point x="541.194938533" y="1095"/>
      <point x="535.194938533" y="1083" type="curve" smooth="yes"/>
      <point x="117.194938533" y="-33" type="line"/>
      <point x="114.194938533" y="-43"/>
      <point x="112.194938533" y="-54"/>
      <point x="114.194938533" y="-55" type="curve" smooth="yes"/>
    </contour>
    <component base="o"/>
    <contour>
      <point x="410.0" y="1006" type="move" name="top"/>
    </contour>
  </outline>
</glyph>
<glyph name="dcroat" format="1">
  <advance width="687"/>
  <unicode hex="0111"/>
  <outline>
    <contour>
      <point x="321" y="-12" type="curve" smooth="yes"/>
      <point x="419" y="-12"/>
      <point x="480" y="50"/>
      <point x="523" y="211" type="curve" smooth="yes"/>
      <point x="524" y="217"/>
      <point x="526" y="222"/>
      <point x="527" y="228" type="curve"/>
      <point x="528.068485758" y="223.726225445"/>
      <point x="529.108757079" y="214.420800646"/>
      <point x="530.240158483" y="201.900477618" type="curve" smooth="yes"/>
      <point x="533.400752422" y="166.924688333"/>
      <point x="537.272503773" y="106.860600493"/>
      <point x="544.457119904" y="61.3133602638" type="curve" smooth="yes"/>
      <point x="548.066931053" y="38.4287784618"/>
      <point x="552.513048823" y="19.2088605049"/>
      <point x="558.125463524" y="8.67696703932" type="curve" smooth="yes"/>
      <point x="561.078150504" y="3.13614613255"/>
      <point x="573" y="0"/>
      <point x="573" y="0" type="curve" smooth="yes"/>
      <point x="588" y="0"/>
      <point x="591" y="24"/>
      <point x="591" y="67" type="curve" smooth="yes"/>
      <point x="591" y="1191" type="line"/>
      <point x="660" y="1191" type="line" smooth="yes"/>
      <point x="673" y="1191"/>
      <point x="683" y="1191"/>
      <point x="683" y="1218" type="curve" smooth="yes"/>
      <point x="683" y="1226" type="line" smooth="yes"/>
      <point x="683" y="1251"/>
      <point x="673" y="1251"/>
      <point x="660" y="1251" type="curve" smooth="yes"/>
      <point x="591" y="1251" type="line"/>
      <point x="591" y="1371" type="line" smooth="yes"/>
      <point x="591" y="1414"/>
      <point x="582" y="1438"/>
      <point x="568" y="1438" type="curve" smooth="yes"/>
      <point x="537" y="1438" type="line" smooth="yes"/>
      <point x="521" y="1438"/>
      <point x="513" y="1414"/>
      <point x="513" y="1371" type="curve" smooth="yes"/>
      <point x="513" y="1251" type="line"/>
      <point x="296" y="1251" type="line" smooth="yes"/>
      <point x="283" y="1251"/>
      <point x="273" y="1251"/>
      <point x="273" y="1224" type="curve" smooth="yes"/>
      <point x="273" y="1216" type="line" smooth="yes"/>
      <point x="273" y="1191"/>
      <point x="283" y="1191"/>
      <point x="296" y="1191" type="curve" smooth="yes"/>
      <point x="513" y="1191" type="line"/>
      <point x="513.0" y="836.704330087" type="line"/>
      <point x="513" y="813" type="line"/>
      <point x="512" y="818"/>
      <point x="510" y="823"/>
      <point x="509" y="826" type="curve" smooth="yes"/>
      <point x="467" y="956"/>
      <point x="399" y="1019"/>
      <point x="323" y="1019" type="curve" smooth="yes"/>
      <point x="189" y="1019"/>
      <point x="78" y="956"/>
      <point x="78" y="505" type="curve" smooth="yes"/>
      <point x="78" y="43"/>
      <point x="209" y="-12"/>
    </contour>
    <contour>
      <point x="335" y="50" type="curve" smooth="yes"/>
      <point x="228" y="46"/>
      <point x="156" y="142"/>
      <point x="156" y="505" type="curve" smooth="yes"/>
      <point x="156" y="892"/>
      <point x="239" y="960"/>
      <point x="335" y="957" type="curve" smooth="yes"/>
      <point x="427" y="954"/>
      <point x="513" y="786"/>
      <point x="513" y="504" type="curve" smooth="yes"/>
      <point x="513" y="246"/>
      <point x="434" y="54"/>
    </contour>
  </outline>
</glyph>
<glyph name="Hbar" format="1">
  <advance width="851"/>
  <unicode hex="0126"/>
  <outline>
    <contour>
      <point x="128" y="0" type="curve" smooth="yes"/>
      <point x="156" y="0" type="line" smooth="yes"/>
      <point x="172" y="0"/>
      <point x="182" y="4"/>
      <point x="182" y="47" type="curve" smooth="yes"/>
      <point x="182" y="681" type="line"/>
      <point x="187" y="697" type="line"/>
      <point x="662" y="697" type="line"/>
      <point x="669" y="679" type="line"/>
      <point x="669" y="47" type="line" smooth="yes"/>
      <point x="669" y="4"/>
      <point x="679" y="0"/>
      <point x="696" y="0" type="curve" smooth="yes"/>
      <point x="726" y="0" type="line" smooth="yes"/>
      <point x="740" y="0"/>
      <point x="748" y="4"/>
      <point x="748" y="47" type="curve" smooth="yes"/>
      <point x="748" y="1191" type="line"/>
      <point x="810" y="1191" type="line" smooth="yes"/>
      <point x="823.001" y="1191"/>
      <point x="833" y="1191"/>
      <point x="833" y="1218" type="curve" smooth="yes"/>
      <point x="833" y="1226" type="line" smooth="yes"/>
      <point x="833" y="1251"/>
      <point x="823.001" y="1251"/>
      <point x="810" y="1251" type="curve" smooth="yes"/>
      <point x="748" y="1251" type="line"/>
      <point x="748" y="1391" type="line" smooth="yes"/>
      <point x="748" y="1434"/>
      <point x="740" y="1438"/>
      <point x="726" y="1438" type="curve" smooth="yes"/>
      <point x="696" y="1438" type="line" smooth="yes"/>
      <point x="679" y="1438"/>
      <point x="669" y="1434"/>
      <point x="669" y="1391" type="curve" smooth="yes"/>
      <point x="669" y="1251" type="line"/>
      <point x="182" y="1251" type="line"/>
      <point x="182" y="1391" type="line" smooth="yes"/>
      <point x="182" y="1434"/>
      <point x="172" y="1438"/>
      <point x="156" y="1438" type="curve" smooth="yes"/>
      <point x="128" y="1438" type="line" smooth="yes"/>
      <point x="112" y="1438"/>
      <point x="104" y="1434"/>
      <point x="104" y="1391" type="curve" smooth="yes"/>
      <point x="104" y="1251" type="line"/>
      <point x="41" y="1251" type="line" smooth="yes"/>
      <point x="28" y="1251"/>
      <point x="18" y="1251"/>
      <point x="18" y="1224" type="curve" smooth="yes"/>
      <point x="18" y="1216" type="line" smooth="yes"/>
      <point x="18" y="1191"/>
      <point x="28" y="1191"/>
      <point x="41" y="1191" type="curve" smooth="yes"/>
      <point x="104" y="1191" type="line"/>
      <point x="104" y="47" type="line" smooth="yes"/>
      <point x="104" y="4"/>
      <point x="112" y="0"/>
    </contour>
    <contour>
      <point x="186" y="765" type="line"/>
      <point x="182" y="780" type="line"/>
      <point x="182" y="1191" type="line"/>
      <point x="669" y="1191" type="line"/>
      <point x="669" y="783" type="line"/>
      <point x="661" y="765" type="line"/>
    </contour>
  </outline>
</glyph>
<glyph name="kgreenlandic" format="1">
  <advance width="631"/>
  <unicode hex="0138"/>
  <outline>
    <contour>
      <point x="120" y="0" type="curve" smooth="yes"/>
      <point x="154" y="0" type="line" smooth="yes"/>
      <point x="169" y="0"/>
      <point x="177" y="24"/>
      <point x="177" y="67" type="curve" smooth="yes"/>
      <point x="177" y="308" type="line" smooth="yes"/>
      <point x="177" y="319"/>
      <point x="179" y="325"/>
      <point x="181" y="330" type="curve"/>
      <point x="183" y="332"/>
      <point x="258" y="459"/>
      <point x="284" y="498" type="curve" smooth="yes"/>
      <point x="287" y="502"/>
      <point x="289" y="503"/>
      <point x="290" y="503" type="curve" smooth="yes"/>
      <point x="294" y="503"/>
      <point x="295" y="498"/>
      <point x="296" y="495" type="curve" smooth="yes"/>
      <point x="504" y="67" type="line"/>
      <point x="520" y="31"/>
      <point x="535" y="0"/>
      <point x="548" y="0" type="curve" smooth="yes"/>
      <point x="587" y="0" type="line" smooth="yes"/>
      <point x="594" y="0"/>
      <point x="599" y="9"/>
      <point x="599" y="22" type="curve" smooth="yes"/>
      <point x="599" y="34"/>
      <point x="595" y="50"/>
      <point x="587" y="67" type="curve" smooth="yes"/>
      <point x="344" y="545" type="line" smooth="yes"/>
      <point x="344" y="546"/>
      <point x="340" y="549"/>
      <point x="340" y="553" type="curve" smooth="yes"/>
      <point x="340" y="556"/>
      <point x="342" y="558"/>
      <point x="344" y="561" type="curve" smooth="yes"/>
      <point x="572" y="939" type="line" smooth="yes"/>
      <point x="583" y="958"/>
      <point x="588" y="976"/>
      <point x="588" y="989" type="curve" smooth="yes"/>
      <point x="588" y="999"/>
      <point x="584" y="1006"/>
      <point x="578" y="1006" type="curve" smooth="yes"/>
      <point x="549" y="1006" type="line" smooth="yes"/>
      <point x="524" y="1006"/>
      <point x="515.582" y="990.948"/>
      <point x="485" y="939" type="curve" smooth="yes"/>
      <point x="183" y="426" type="line" smooth="yes"/>
      <point x="181" y="424"/>
      <point x="180" y="424"/>
      <point x="180" y="424" type="curve"/>
      <point x="178" y="424"/>
      <point x="177" y="427"/>
      <point x="177" y="433" type="curve" smooth="yes"/>
      <point x="177" y="939" type="line" smooth="yes"/>
      <point x="177" y="982"/>
      <point x="169" y="1006"/>
      <point x="154" y="1006" type="curve" smooth="yes"/>
      <point x="120" y="1006" type="line" smooth="yes"/>
      <point x="106" y="1006"/>
      <point x="98" y="982"/>
      <point x="98" y="939" type="curve" smooth="yes"/>
      <point x="98" y="67" type="line" smooth="yes"/>
      <point x="98" y="24"/>
      <point x="106" y="0"/>
    </contour>
  </outline>
</glyph>
<glyph name="Lslash" format="1">
  <advance width="540"/>
  <unicode hex="0141"/>
  <outline>
    <contour>
      <point x="462" y="0" type="line" smooth="yes"/>
      <point x="475" y="0"/>
      <point x="485" y="0"/>
      <point x="485" y="27" type="curve" smooth="yes"/>
      <point x="485" y="35" type="line" smooth="yes"/>
      <point x="485" y="60"/>
      <point x="475" y="60"/>
      <point x="462" y="60" type="curve" smooth="yes"/>
      <point x="196" y="60" type="line" smooth="yes"/>
      <point x="188" y="60"/>
      <point x="182" y="58"/>
      <point x="182" y="78" type="curve" smooth="yes"/>
      <point x="182" y="762" type="line"/>
      <point x="350" y="815" type="line" smooth="yes"/>
      <point x="363" y="819"/>
      <point x="373" y="817"/>
      <point x="373" y="841" type="curve" smooth="yes"/>
      <point x="373" y="855" type="line" smooth="yes"/>
      <point x="373" y="879"/>
      <point x="363" y="885"/>
      <point x="350" y="881" type="curve" smooth="yes"/>
      <point x="182" y="828" type="line"/>
      <point x="182" y="1391" type="line" smooth="yes"/>
      <point x="182" y="1434"/>
      <point x="174" y="1438"/>
      <point x="159" y="1438" type="curve" smooth="yes"/>
      <point x="126" y="1438" type="line" smooth="yes"/>
      <point x="112" y="1438"/>
      <point x="104" y="1434"/>
      <point x="104" y="1391" type="curve" smooth="yes"/>
      <point x="104" y="803" type="line"/>
      <point x="22" y="777" type="line" smooth="yes"/>
      <point x="10" y="773"/>
      <point x="-1" y="775"/>
      <point x="-1" y="751" type="curve" smooth="yes"/>
      <point x="-1" y="737" type="line" smooth="yes"/>
      <point x="-1" y="713"/>
      <point x="9" y="707"/>
      <point x="22" y="711" type="curve" smooth="yes"/>
      <point x="104" y="737" type="line"/>
      <point x="104" y="47" type="line" smooth="yes"/>
      <point x="104" y="4"/>
      <point x="112" y="0"/>
      <point x="126" y="0" type="curve" smooth="yes"/>
    </contour>
  </outline>
</glyph>
<glyph name="OE" format="1">
  <advance width="941"/>
  <unicode hex="0152"/>
  <outline>
    <contour>
      <point x="422" y="0" type="line" smooth="yes"/>
      <point x="174" y="0"/>
      <point x="90" y="135"/>
      <point x="90" y="724" type="curve" smooth="yes"/>
      <point x="90" y="1266"/>
      <point x="174" y="1438"/>
      <point x="422" y="1438" type="curve" smooth="yes"/>
      <point x="847" y="1438" type="line" smooth="yes"/>
      <point x="861" y="1438"/>
      <point x="869" y="1438"/>
      <point x="869" y="1411" type="curve" smooth="yes"/>
      <point x="869" y="1405" type="line" smooth="yes"/>
      <point x="869" y="1378"/>
      <point x="861" y="1378"/>
      <point x="847" y="1378" type="curve" smooth="yes"/>
      <point x="613" y="1378" type="line" smooth="yes"/>
      <point x="605" y="1378"/>
      <point x="604" y="1373"/>
      <point x="604" y="1353" type="curve" smooth="yes"/>
      <point x="604" y="783" type="line"/>
      <point x="608" y="775" type="line"/>
      <point x="838" y="775" type="line" smooth="yes"/>
      <point x="853" y="775"/>
      <point x="861" y="775"/>
      <point x="861" y="750" type="curve" smooth="yes"/>
      <point x="861" y="743" type="line" smooth="yes"/>
      <point x="861" y="716"/>
      <point x="853" y="716"/>
      <point x="838" y="716" type="curve" smooth="yes"/>
      <point x="609" y="716" type="line"/>
      <point x="604" y="699" type="line"/>
      <point x="604.0" y="73.6666284129" type="line"/>
      <point x="604" y="60" type="line"/>
      <point x="848" y="60" type="line" smooth="yes"/>
      <point x="862" y="60"/>
      <point x="870" y="60"/>
      <point x="870" y="33" type="curve" smooth="yes"/>
      <point x="870" y="27" type="line" smooth="yes"/>
      <point x="870" y="0"/>
      <point x="862" y="0"/>
      <point x="848" y="0" type="curve" smooth="yes"/>
    </contour>
    <contour>
      <point x="526" y="58.5947" type="line"/>
      <point x="526" y="1378.26" type="line"/>
      <point x="422" y="1378" type="line" smooth="yes"/>
      <point x="233" y="1377.52"/>
      <point x="168" y="1212"/>
      <point x="168" y="724" type="curve" smooth="yes"/>
      <point x="168" y="168"/>
      <point x="238" y="59.7168"/>
      <point x="422" y="59" type="curve" smooth="yes"/>
    </contour>
    <contour>
      <point x="471" y="1438" type="move" name="top"/>
    </contour>
  </outline>
</glyph>
<glyph name="florin" format="1">
  <advance width="412"/>
  <unicode hex="0192"/>
  <outline>
    <contour>
      <point x="-33" y="-91" type="curve" smooth="yes"/>
      <point x="125" y="-91"/>
      <point x="163.057" y="-17.1113"/>
      <point x="196" y="305" type="curve" smooth="yes"/>
      <point x="241" y="745" type="line" smooth="yes"/>
      <point x="242.83" y="765.017"/>
      <point x="245" y="766"/>
      <point x="252" y="766" type="curve" smooth="yes"/>
      <point x="356" y="766" type="line" smooth="yes"/>
      <point x="370" y="766"/>
      <point x="378" y="769"/>
      <point x="380" y="788" type="curve" smooth="yes"/>
      <point x="383" y="817" type="line" smooth="yes"/>
      <point x="385" y="835"/>
      <point x="378" y="836"/>
      <point x="364" y="836" type="curve" smooth="yes"/>
      <point x="255" y="836" type="line" smooth="yes"/>
      <point x="253" y="836"/>
      <point x="250.665" y="839.02"/>
      <point x="251" y="842" type="curve" smooth="yes"/>
      <point x="262" y="940" type="line"/>
      <point x="285" y="1163"/>
      <point x="303" y="1210"/>
      <point x="403" y="1210" type="curve" smooth="yes"/>
      <point x="421" y="1210" type="line" smooth="yes"/>
      <point x="435.968" y="1210"/>
      <point x="439.505" y="1237.91"/>
      <point x="439.505" y="1264.46" type="curve" smooth="yes"/>
      <point x="439.505" y="1283.12732409"/>
      <point x="430.0809062" y="1280.0"/>
      <point x="423" y="1280" type="curve" smooth="yes"/>
      <point x="408" y="1280" type="line" smooth="yes"/>
      <point x="250" y="1280"/>
      <point x="214" y="1206"/>
      <point x="180" y="884" type="curve" smooth="yes"/>
      <point x="178" y="862"/>
      <point x="174" y="836"/>
      <point x="166" y="836" type="curve" smooth="yes"/>
      <point x="84" y="836" type="line" smooth="yes"/>
      <point x="69" y="836"/>
      <point x="59" y="834"/>
      <point x="57" y="815" type="curve" smooth="yes"/>
      <point x="55" y="788" type="line" smooth="yes"/>
      <point x="53" y="768"/>
      <point x="61" y="766"/>
      <point x="76" y="766" type="curve" smooth="yes"/>
      <point x="158" y="766" type="line" smooth="yes"/>
      <point x="166" y="766"/>
      <point x="165.873" y="765.013"/>
      <point x="164" y="745" type="curve" smooth="yes"/>
      <point x="113" y="249" type="line" smooth="yes"/>
      <point x="90.0703" y="25.9932"/>
      <point x="72" y="-21"/>
      <point x="-28" y="-21" type="curve" smooth="yes"/>
      <point x="-36" y="-21" type="line" smooth="yes"/>
      <point x="-51.8139" y="-21"/>
      <point x="-53.5449" y="-48.0816"/>
      <point x="-53.5449" y="-76.027" type="curve" smooth="yes"/>
      <point x="-53.5449" y="-89.4894"/>
      <point x="-48.7897" y="-91.1975"/>
      <point x="-43.465" y="-91.1975" type="curve" smooth="yes"/>
      <point x="-41.6543" y="-91.1975"/>
      <point x="-33" y="-91"/>
    </contour>
  </outline>
</glyph>
<glyph name="caron" format="1">
  <advance width="291"/>
  <unicode hex="02C7"/>
  <outline>
    <contour>
      <point x="138" y="1240" type="curve" smooth="yes"/>
      <point x="154" y="1240" type="line" smooth="yes"/>
      <point x="175" y="1240"/>
      <point x="188" y="1258"/>
      <point x="208" y="1307" type="curve" smooth="yes"/>
      <point x="265" y="1447" type="line" smooth="yes"/>
      <point x="266" y="1449"/>
      <point x="266" y="1451"/>
      <point x="266" y="1453" type="curve" smooth="yes"/>
      <point x="266" y="1467"/>
      <point x="246" y="1476"/>
      <point x="230" y="1476" type="curve" smooth="yes"/>
      <point x="222" y="1476"/>
      <point x="215" y="1474"/>
      <point x="212" y="1468" type="curve" smooth="yes"/>
      <point x="155" y="1363" type="line" smooth="yes"/>
      <point x="152" y="1357"/>
      <point x="149" y="1353"/>
      <point x="146" y="1353" type="curve" smooth="yes"/>
      <point x="143" y="1353"/>
      <point x="140" y="1357"/>
      <point x="137" y="1363" type="curve" smooth="yes"/>
      <point x="80" y="1468" type="line" smooth="yes"/>
      <point x="77" y="1474"/>
      <point x="70" y="1476"/>
      <point x="62" y="1476" type="curve" smooth="yes"/>
      <point x="46" y="1476"/>
      <point x="26" y="1467"/>
      <point x="26" y="1453" type="curve" smooth="yes"/>
      <point x="26" y="1451"/>
      <point x="26" y="1449"/>
      <point x="27" y="1447" type="curve" smooth="yes"/>
      <point x="84" y="1307" type="line" smooth="yes"/>
      <point x="104" y="1258"/>
      <point x="117" y="1240"/>
    </contour>
    <contour>
      <point x="146" y="1006" type="move" name="_top"/>
    </contour>
  </outline>
</glyph>
<glyph name="ogonek" format="1">
  <advance width="716"/>
  <unicode hex="02DB"/>
  <outline>
    <contour>
      <point x="479" y="-318" type="curve" smooth="yes"/>
      <point x="492" y="-318"/>
      <point x="495" y="-311"/>
      <point x="495" y="-301" type="curve" smooth="yes"/>
      <point x="495" y="-260" type="line" smooth="yes"/>
      <point x="495" y="-249"/>
      <point x="479" y="-250"/>
      <point x="479" y="-250" type="curve"/>
      <point x="376.049" y="-250"/>
      <point x="331.226" y="-200.573"/>
      <point x="331.226" y="-144.229" type="curve" smooth="yes"/>
      <point x="331.226" y="-93.9096"/>
      <point x="366.976" y="-38.0735"/>
      <point x="429" y="-7" type="curve"/>
      <point x="429" y="16" type="line"/>
      <point x="312.583" y="-13.4992"/>
      <point x="250.811" y="-91.4023"/>
      <point x="250.811" y="-164.555" type="curve" smooth="yes"/>
      <point x="250.811" y="-239.423754426"/>
      <point x="315.513580148" y="-309.316409858"/>
      <point x="452.559858954" y="-317.252030139" type="curve" smooth="yes"/>
      <point x="461.092208202" y="-317.746093052"/>
      <point x="469.904973884" y="-318.0"/>
    </contour>
    <contour>
      <point x="495" y="10" type="move" name="_ogonek"/>
    </contour>
  </outline>
</glyph>
<glyph name="tilde" format="1">
  <advance width="332"/>
  <unicode hex="02DC"/>
  <outline>
    <contour>
      <point x="344" y="834" type="curve" smooth="yes"/>
      <point x="358" y="834"/>
      <point x="371" y="844"/>
      <point x="371" y="861" type="curve" smooth="yes"/>
      <point x="371" y="867"/>
      <point x="370" y="873"/>
      <point x="367" y="880" type="curve" smooth="yes"/>
      <point x="342" y="929"/>
      <point x="312" y="967"/>
      <point x="265" y="967" type="curve" smooth="yes"/>
      <point x="201" y="967"/>
      <point x="145" y="897"/>
      <point x="97" y="897" type="curve" smooth="yes"/>
      <point x="77" y="897"/>
      <point x="54" y="911"/>
      <point x="40" y="954" type="curve"/>
      <point x="35" y="966"/>
      <point x="26" y="973"/>
      <point x="16" y="973" type="curve" smooth="yes"/>
      <point x="0" y="973"/>
      <point x="-16" y="959"/>
      <point x="-16" y="940" type="curve" smooth="yes"/>
      <point x="-16" y="936"/>
      <point x="-16" y="931"/>
      <point x="-14" y="926" type="curve" smooth="yes"/>
      <point x="-1" y="894"/>
      <point x="24" y="842"/>
      <point x="97" y="842" type="curve" smooth="yes"/>
      <point x="158" y="842"/>
      <point x="220" y="911"/>
      <point x="260" y="911" type="curve" smooth="yes"/>
      <point x="284" y="911"/>
      <point x="297" y="883"/>
      <point x="317" y="851" type="curve" smooth="yes"/>
      <point x="324" y="840"/>
      <point x="333" y="834"/>
    </contour>
    <contour>
      <point x="177.5" y="1006" type="move" name="_top"/>
    </contour>
  </outline>
</glyph>
<glyph name="uni0311" format="1">
  <advance width="1176"/>
  <unicode hex="0311"/>
  <outline>
    <contour>
      <point x="428" y="1293.15" type="curve"/>
      <point x="488" y="1293.15" type="line"/>
      <point x="488" y="1354.92"/>
      <point x="542.65" y="1386.37"/>
      <point x="596.973" y="1386.37" type="curve" smooth="yes"/>
      <point x="650.646" y="1386.37"/>
      <point x="704" y="1355.66"/>
      <point x="704" y="1293.15" type="curve"/>
      <point x="764" y="1293.15" type="line"/>
      <point x="764" y="1403.68"/>
      <point x="680.972" y="1458"/>
      <point x="597.462" y="1458" type="curve" smooth="yes"/>
      <point x="512.978" y="1458"/>
      <point x="428" y="1402.4"/>
    </contour>
  </outline>
</glyph>
<glyph name="Delta" format="1">
  <advance width="739"/>
  <unicode hex="0394"/>
  <outline>
    <contour>
      <point x="141" y="242" type="curve" smooth="yes"/>
      <point x="141" y="242"/>
      <point x="607.0" y="242.0"/>
      <point x="607" y="242" type="curve" smooth="yes"/>
      <point x="617" y="242"/>
      <point x="622" y="253"/>
      <point x="622" y="273" type="curve" smooth="yes"/>
      <point x="622" y="283"/>
      <point x="617" y="281"/>
      <point x="615" y="295" type="curve" smooth="yes"/>
      <point x="435" y="1270" type="line" smooth="yes"/>
      <point x="427.448" y="1310.9"/>
      <point x="416" y="1325"/>
      <point x="400" y="1328" type="curve"/>
      <point x="354" y="1328" type="line"/>
      <point x="338" y="1325"/>
      <point x="326.03" y="1310.99"/>
      <point x="318" y="1270" type="curve" smooth="yes"/>
      <point x="127" y="295" type="line" smooth="yes"/>
      <point x="124" y="281"/>
      <point x="126" y="284"/>
      <point x="126" y="274" type="curve" smooth="yes"/>
      <point x="126" y="253"/>
      <point x="132" y="242"/>
    </contour>
    <contour>
      <point x="227" y="310" type="line" smooth="yes"/>
      <point x="221" y="310"/>
      <point x="218" y="315"/>
      <point x="218" y="317" type="curve" smooth="yes"/>
      <point x="218" y="318"/>
      <point x="218" y="321"/>
      <point x="219" y="326" type="curve" smooth="yes"/>
      <point x="375" y="1221" type="line"/>
      <point x="375" y="1221"/>
      <point x="375" y="1223"/>
      <point x="377" y="1223" type="curve"/>
      <point x="377" y="1223"/>
      <point x="377" y="1222"/>
      <point x="378" y="1221" type="curve" smooth="yes"/>
      <point x="525" y="320" type="line"/>
      <point x="527" y="319"/>
      <point x="527" y="317"/>
      <point x="527" y="315" type="curve" smooth="yes"/>
      <point x="527" y="313"/>
      <point x="527" y="310"/>
      <point x="525" y="310" type="curve" smooth="yes"/>
    </contour>
  </outline>
</glyph>
<glyph name="quoteleft" format="1">
  <advance width="296"/>
  <unicode hex="2018"/>
  <outline>
    <contour>
      <point x="115" y="911" type="curve" smooth="yes"/>
      <point x="182" y="911" type="line" smooth="yes"/>
      <point x="196" y="911"/>
      <point x="203" y="932"/>
      <point x="203" y="975" type="curve" smooth="yes"/>
      <point x="203" y="1178" type="line" smooth="yes"/>
      <point x="203" y="1216"/>
      <point x="195" y="1228"/>
      <point x="182" y="1228" type="curve" smooth="yes"/>
      <point x="153" y="1228" type="line" smooth="yes"/>
      <point x="148" y="1228"/>
      <point x="147" y="1239"/>
      <point x="147" y="1255" type="curve" smooth="yes"/>
      <point x="147" y="1279"/>
      <point x="159" y="1356"/>
      <point x="182" y="1399" type="curve" smooth="yes"/>
      <point x="197" y="1426"/>
      <point x="203" y="1420"/>
      <point x="203" y="1474" type="curve" smooth="yes"/>
      <point x="203" y="1484" type="line" smooth="yes"/>
      <point x="203" y="1520"/>
      <point x="192" y="1535"/>
      <point x="180" y="1529" type="curve" smooth="yes"/>
      <point x="133" y="1506"/>
      <point x="88" y="1370"/>
      <point x="88" y="1133" type="curve" smooth="yes"/>
      <point x="88" y="988" type="line" smooth="yes"/>
      <point x="88" y="945"/>
      <point x="99" y="911"/>
    </contour>
  </outline>
</glyph>
<glyph name="quotedblright" format="1">
  <advance width="497"/>
  <unicode hex="201D"/>
  <outline>
    <contour>
      <point x="114" y="917" type="curve" smooth="yes"/>
      <point x="162" y="940"/>
      <point x="207" y="1076"/>
      <point x="207" y="1313" type="curve" smooth="yes"/>
      <point x="207" y="1458" type="line" smooth="yes"/>
      <point x="207" y="1501"/>
      <point x="195" y="1535"/>
      <point x="180" y="1535" type="curve" smooth="yes"/>
      <point x="113" y="1535" type="line" smooth="yes"/>
      <point x="98" y="1535"/>
      <point x="92" y="1514"/>
      <point x="92" y="1471" type="curve" smooth="yes"/>
      <point x="92" y="1268" type="line" smooth="yes"/>
      <point x="92" y="1230"/>
      <point x="100" y="1218"/>
      <point x="113" y="1218" type="curve" smooth="yes"/>
      <point x="141" y="1218" type="line" smooth="yes"/>
      <point x="147" y="1218"/>
      <point x="147" y="1207"/>
      <point x="147" y="1191" type="curve" smooth="yes"/>
      <point x="147" y="1167"/>
      <point x="136" y="1090"/>
      <point x="113" y="1047" type="curve" smooth="yes"/>
      <point x="98" y="1020"/>
      <point x="92" y="1026"/>
      <point x="92" y="972" type="curve" smooth="yes"/>
      <point x="92" y="962" type="line" smooth="yes"/>
      <point x="92" y="926"/>
      <point x="102" y="911"/>
    </contour>
    <contour>
      <point x="312" y="917" type="curve" smooth="yes"/>
      <point x="360" y="940"/>
      <point x="405" y="1076"/>
      <point x="405" y="1313" type="curve" smooth="yes"/>
      <point x="405" y="1458" type="line" smooth="yes"/>
      <point x="405" y="1501"/>
      <point x="393" y="1535"/>
      <point x="378" y="1535" type="curve" smooth="yes"/>
      <point x="311" y="1535" type="line" smooth="yes"/>
      <point x="296" y="1535"/>
      <point x="290" y="1514"/>
      <point x="290" y="1471" type="curve" smooth="yes"/>
      <point x="290" y="1268" type="line" smooth="yes"/>
      <point x="290" y="1230"/>
      <point x="298" y="1218"/>
      <point x="311" y="1218" type="curve" smooth="yes"/>
      <point x="339" y="1218" type="line" smooth="yes"/>
      <point x="345" y="1218"/>
      <point x="345" y="1207"/>
      <point x="345" y="1191" type="curve" smooth="yes"/>
      <point x="345" y="1167"/>
      <point x="334" y="1090"/>
      <point x="311" y="1047" type="curve" smooth="yes"/>
      <point x="296" y="1020"/>
      <point x="290" y="1026"/>
      <point x="290" y="972" type="curve" smooth="yes"/>
      <point x="290" y="962" type="line" smooth="yes"/>
      <point x="290" y="926"/>
      <point x="300" y="911"/>
    </contour>
  </outline>
</glyph>
<glyph name="bullet" format="1">
  <advance width="946"/>
  <unicode hex="2022"/>
  <outline>
    <contour>
      <point x="473" y="743" type="curve" smooth="yes"/>
      <point x="702" y="743"/>
      <point x="787" y="913"/>
      <point x="787" y="1059" type="curve" smooth="yes"/>
      <point x="787" y="1214"/>
      <point x="702" y="1379"/>
      <point x="473" y="1379" type="curve" smooth="yes"/>
      <point x="243" y="1379"/>
      <point x="157" y="1214"/>
      <point x="157" y="1059" type="curve" smooth="yes"/>
      <point x="157" y="913"/>
      <point x="243" y="743"/>
    </contour>
  </outline>
</glyph>
<glyph name="guilsinglleft" format="1">
  <advance width="427"/>
  <unicode hex="2039"/>
  <outline>
    <contour>
      <point x="367.139" y="241.651" type="curve" smooth="yes"/>
      <point x="371.799" y="241.651"/>
      <point x="375" y="249"/>
      <point x="375" y="273" type="curve" smooth="yes"/>
      <point x="375" y="301" type="line" smooth="yes"/>
      <point x="375" y="344"/>
      <point x="371.105" y="341.486"/>
      <point x="351" y="361" type="curve" smooth="yes"/>
      <point x="113" y="592" type="line" smooth="yes"/>
      <point x="109.956" y="594.954"/>
      <point x="109" y="600"/>
      <point x="109" y="604" type="curve" smooth="yes"/>
      <point x="109" y="609"/>
      <point x="109.534" y="614.37"/>
      <point x="112" y="617" type="curve" smooth="yes"/>
      <point x="352" y="873" type="line" smooth="yes"/>
      <point x="371.356" y="893.647"/>
      <point x="375" y="894"/>
      <point x="375" y="937" type="curve" smooth="yes"/>
      <point x="375" y="952" type="line" smooth="yes"/>
      <point x="375" y="978.309"/>
      <point x="371.481" y="990.521"/>
      <point x="364.258" y="990.521" type="curve" smooth="yes"/>
      <point x="360.73" y="990.521"/>
      <point x="356.318" y="987.608"/>
      <point x="351" y="982" type="curve" smooth="yes"/>
      <point x="76" y="692" type="line" smooth="yes"/>
      <point x="52.3095" y="667.018"/>
      <point x="49.825" y="655.291"/>
      <point x="49.825" y="632.224" type="curve" smooth="yes"/>
      <point x="49.6052" y="578.318" type="line" smooth="yes"/>
      <point x="49.6052" y="556.258"/>
      <point x="52.5923" y="541.598"/>
      <point x="75" y="520" type="curve" smooth="yes"/>
      <point x="352" y="253" type="line" smooth="yes"/>
      <point x="357.378" y="247.816"/>
      <point x="362.871" y="241.651"/>
    </contour>
  </outline>
</glyph>
<glyph name="fraction" format="1">
  <advance width="501"/>
  <unicode hex="2044"/>
  <outline>
    <contour>
      <point x="76" y="-205" type="curve" smooth="yes"/>
      <point x="121" y="-205" type="line" smooth="yes"/>
      <point x="127" y="-205"/>
      <point x="135" y="-192"/>
      <point x="138" y="-172" type="curve" smooth="yes"/>
      <point x="438" y="1614" type="line" smooth="yes"/>
      <point x="441" y="1629"/>
      <point x="437" y="1647"/>
      <point x="431" y="1647" type="curve" smooth="yes"/>
      <point x="388" y="1647" type="line" smooth="yes"/>
      <point x="380" y="1647"/>
      <point x="372" y="1634"/>
      <point x="369" y="1614" type="curve" smooth="yes"/>
      <point x="69" y="-172" type="line" smooth="yes"/>
      <point x="66" y="-187"/>
      <point x="71" y="-205"/>
    </contour>
  </outline>
</glyph>
<glyph name="product" format="1">
  <advance width="851"/>
  <unicode hex="220F"/>
  <outline>
    <contour>
      <point x="128" y="0" type="curve" smooth="yes"/>
      <point x="156" y="0" type="line" smooth="yes"/>
      <point x="172" y="0"/>
      <point x="182" y="4"/>
      <point x="182" y="47" type="curve" smooth="yes"/>
      <point x="182" y="1354" type="line" smooth="yes"/>
      <point x="182" y="1362.83"/>
      <point x="184.24" y="1370"/>
      <point x="187" y="1370" type="curve" smooth="yes"/>
      <point x="662" y="1370" type="line" smooth="yes"/>
      <point x="665.864" y="1370"/>
      <point x="669" y="1361.94"/>
      <point x="669" y="1352" type="curve" smooth="yes"/>
      <point x="669" y="47" type="line" smooth="yes"/>
      <point x="669" y="4"/>
      <point x="679" y="0"/>
      <point x="696" y="0" type="curve" smooth="yes"/>
      <point x="726" y="0" type="line" smooth="yes"/>
      <point x="740" y="0"/>
      <point x="748" y="4"/>
      <point x="748" y="47" type="curve" smooth="yes"/>
      <point x="748" y="1391" type="line" smooth="yes"/>
      <point x="748" y="1434"/>
      <point x="740" y="1438"/>
      <point x="726" y="1438" type="curve" smooth="yes"/>
      <point x="128" y="1438" type="line" smooth="yes"/>
      <point x="112" y="1438"/>
      <point x="104" y="1434"/>
      <point x="104" y="1391" type="curve" smooth="yes"/>
      <point x="104" y="47" type="line" smooth="yes"/>
      <point x="104" y="4"/>
      <point x="112" y="0"/>
    </contour>
  </outline>
</glyph>
<glyph name="minus" format="1">
  <advance width="540"/>
  <unicode hex="2212"/>
  <outline>
    <contour>
      <point x="80" y="650" type="curve" smooth="yes"/>
      <point x="460" y="650" type="line" smooth="yes"/>
      <point x="473" y="650"/>
      <point x="483" y="654"/>
      <point x="483" y="681" type="curve" smooth="yes"/>
      <point x="483" y="689" type="line" smooth="yes"/>
      <point x="483" y="714"/>
      <point x="473" y="719"/>
      <point x="460" y="719" type="curve" smooth="yes"/>
      <point x="80" y="719" type="line" smooth="yes"/>
      <point x="67" y="719"/>
      <point x="57" y="714"/>
      <point x="57" y="687" type="curve" smooth="yes"/>
      <point x="57" y="679" type="line" smooth="yes"/>
      <point x="57" y="654"/>
      <point x="67" y="650"/>
    </contour>
  </outline>
</glyph>
<glyph name="integral" format="1">
  <advance width="412"/>
  <unicode hex="222B"/>
  <outline>
    <contour>
      <point x="-43.465" y="-91.1975" type="curve" smooth="yes"/>
      <point x="-41.6543" y="-91.1975"/>
      <point x="-33" y="-91"/>
      <point x="-33" y="-91" type="curve" smooth="yes"/>
      <point x="125" y="-91"/>
      <point x="163.057" y="-17.1113"/>
      <point x="196" y="305" type="curve" smooth="yes"/>
      <point x="262" y="940" type="line" smooth="yes"/>
      <point x="285" y="1163"/>
      <point x="303" y="1210"/>
      <point x="403" y="1210" type="curve" smooth="yes"/>
      <point x="421" y="1210" type="line" smooth="yes"/>
      <point x="428.484" y="1210.0"/>
      <point x="433.11025" y="1216.9775"/>
      <point x="435.8655" y="1227.27375" type="curve" smooth="yes"/>
      <point x="438.62075" y="1237.57"/>
      <point x="439.505" y="1251.185"/>
      <point x="439.505" y="1264.46" type="curve" smooth="yes"/>
      <point x="439.505" y="1283.12732409"/>
      <point x="408" y="1280"/>
      <point x="408" y="1280" type="curve" smooth="yes"/>
      <point x="250" y="1280"/>
      <point x="214" y="1206"/>
      <point x="180" y="884" type="curve" smooth="yes"/>
      <point x="113" y="249" type="line" smooth="yes"/>
      <point x="90.0703" y="25.9932"/>
      <point x="72" y="-21"/>
      <point x="-28" y="-21" type="curve" smooth="yes"/>
      <point x="-36" y="-21" type="line" smooth="yes"/>
      <point x="-43.90695" y="-21.0"/>
      <point x="-48.293175" y="-27.7704"/>
      <point x="-50.7026625" y="-38.033975" type="curve" smooth="yes"/>
      <point x="-53.11215" y="-48.29755"/>
      <point x="-53.5449" y="-62.0543"/>
      <point x="-53.5449" y="-76.027" type="curve" smooth="yes"/>
      <point x="-53.5449" y="-89.4894"/>
      <point x="-48.7897" y="-91.1975"/>
    </contour>
  </outline>
</glyph>
<glyph name="lozenge" format="1">
  <advance width="739"/>
  <unicode hex="25CA"/>
  <outline>
    <contour>
      <point x="353" y="21" type="curve"/>
      <point x="399" y="21" type="line"/>
      <point x="415" y="24"/>
      <point x="422.771" y="38.7637"/>
      <point x="434" y="79" type="curve" smooth="yes"/>
      <point x="614" y="724" type="line" smooth="yes"/>
      <point x="614" y="734"/>
      <point x="618.644" y="731.337"/>
      <point x="615" y="745" type="curve" smooth="yes"/>
      <point x="435" y="1370" type="line" smooth="yes"/>
      <point x="423.439" y="1410.14"/>
      <point x="416" y="1425"/>
      <point x="400" y="1428" type="curve"/>
      <point x="354" y="1428" type="line"/>
      <point x="338" y="1425"/>
      <point x="330.209" y="1409.95"/>
      <point x="318" y="1370" type="curve" smooth="yes"/>
      <point x="127" y="745" type="line" smooth="yes"/>
      <point x="123.102" y="731.224"/>
      <point x="122.943" y="733.522"/>
      <point x="126" y="724" type="curve" smooth="yes"/>
      <point x="317" y="79" type="line" smooth="yes"/>
      <point x="328.861" y="38.9463"/>
      <point x="337" y="24"/>
    </contour>
    <contour>
      <point x="376" y="126" type="curve"/>
      <point x="374" y="126"/>
      <point x="374" y="128"/>
      <point x="374" y="128" type="curve"/>
      <point x="211.674" y="725.2" type="line" smooth="yes"/>
      <point x="375" y="1321" type="line"/>
      <point x="375" y="1321"/>
      <point x="375" y="1323"/>
      <point x="377" y="1323" type="curve"/>
      <point x="377" y="1323"/>
      <point x="377.658" y="1322.37"/>
      <point x="378" y="1321" type="curve" smooth="yes"/>
      <point x="524" y="735.2" type="line"/>
      <point x="377" y="128" type="line" smooth="yes"/>
      <point x="376.668" y="126.628"/>
      <point x="376" y="126"/>
    </contour>
  </outline>
</glyph>
